<?xml version="1.0" encoding="UTF-8" standalone="no"?>
<svg
   xmlns:dc="http://purl.org/dc/elements/1.1/"
   xmlns:cc="http://creativecommons.org/ns#"
   xmlns:rdf="http://www.w3.org/1999/02/22-rdf-syntax-ns#"
   xmlns:svg="http://www.w3.org/2000/svg"
   xmlns="http://www.w3.org/2000/svg"
   xmlns:sodipodi="http://sodipodi.sourceforge.net/DTD/sodipodi-0.dtd"
   xmlns:inkscape="http://www.inkscape.org/namespaces/inkscape"
   inkscape:version="1.0 (4035a4fb49, 2020-05-01)"
   sodipodi:docname="dizzy.svg"
   id="svg8"
   version="1.1"
   viewBox="0 0 94.705956 94.542796"
   height="94.542793mm"
   width="94.705956mm">
  <defs
     id="defs2">
    <clipPath
       id="clipPath26"
       clipPathUnits="userSpaceOnUse">
      <rect
         y="-30.994047"
         x="-380.24402"
         height="122.46429"
         width="686.40472"
         id="rect28"
         style="fill:#d62e80;stroke-width:0.264583" />
    </clipPath>
  </defs>
  <sodipodi:namedview
     inkscape:window-maximized="1"
     inkscape:window-y="-9"
     inkscape:window-x="-9"
     inkscape:window-height="1001"
     inkscape:window-width="1920"
     showguides="false"
     fit-margin-bottom="0"
     fit-margin-right="0"
     fit-margin-left="0"
     fit-margin-top="0"
     showgrid="false"
     inkscape:document-rotation="0"
     inkscape:current-layer="g243"
     inkscape:document-units="mm"
     inkscape:cy="261.08994"
     inkscape:cx="-19.298959"
     inkscape:zoom="0.49497475"
     inkscape:pageshadow="2"
     inkscape:pageopacity="0.0"
     borderopacity="1.0"
     bordercolor="#666666"
     pagecolor="#ffffff"
     id="base" />
  <metadata
     id="metadata5">
    <rdf:RDF>
      <cc:Work
         rdf:about="">
        <dc:format>image/svg+xml</dc:format>
        <dc:type
           rdf:resource="http://purl.org/dc/dcmitype/StillImage" />
        <dc:title></dc:title>
      </cc:Work>
    </rdf:RDF>
  </metadata>
  <g
     style="display:inline"
     transform="translate(249.98699,18.506972)"
     id="layer1"
     inkscape:groupmode="layer"
     inkscape:label="Layer 1">
    <g
       style="display:inline"
       transform="translate(-274.26821,-2.4693879)"
       id="g243">
      <path
         sodipodi:nodetypes="sssssscsssssss"
         id="path295"
         d="M 66.85683,78.274583 C 61.576037,77.80291 56.114058,76.26248 51.00789,73.804739 38.985725,68.018169 29.616644,56.854234 26.013442,44.022074 23.660634,35.642905 23.706248,26.22567 26.140309,17.840495 28.721267,8.9491719 34.359115,0.50592082 41.879764,-5.7310228 c 3.701442,-3.0696429 10.063851,-6.5007592 15.125225,-8.1567342 5.279629,-1.727385 8.069422,-2.133494 14.640402,-2.131298 6.191145,0.0026 7.968986,0.22315 12.909578,1.60536 10.766584,3.012122 20.549161,10.2278389 26.737281,19.7216711 7.92547,12.1591919 9.82674,27.1270939 5.20814,41.0015009 -4.51059,13.55 -15.29384,24.559736 -28.854559,29.460587 -2.665889,0.963454 -7.672811,2.263351 -9.782731,2.539815 -2.096955,0.274743 -7.737661,0.256645 -11.00627,-0.0353 z"
         style="display:inline;fill:#fcecc1;stroke-width:0.264583" />
      <path
         sodipodi:nodetypes="sssssscssssssssssscssssssssssscssscsssssscssscssssscssssscsssscsssscccccccsssscscsssscssscccccccccccsccsscsscss"
         id="path293"
         d="M 66.85683,78.282995 C 49.876399,76.707721 34.820707,65.570614 27.961146,49.510776 c -2.578418,-6.036654 -3.662601,-11.585919 -3.628708,-18.5733 0.03334,-6.877632 1.100111,-12.159298 3.703214,-18.334699 2.830063,-6.7139082 7.851935,-13.36434265 13.844112,-18.3336939 3.701442,-3.069643 10.063851,-6.5007601 15.125225,-8.1567341 5.279629,-1.727385 8.069422,-2.133494 14.640402,-2.131298 6.191145,0.0026 7.968986,0.22315 12.909578,1.605359 14.842861,4.15253 27.030151,15.7935883 31.954681,30.522413 8.77422,26.242937 -6.55203,54.228816 -33.421161,61.027364 -1.95916,0.495697 -3.773303,0.712735 -7.540626,0.902123 -2.728436,0.13716 -5.258461,0.298583 -5.622264,0.358696 -0.363802,0.06011 -1.744741,0.0087 -3.068769,-0.114009 z M 77.06935,66.79455 c 0.800365,-0.245215 1.871927,-0.714772 2.38125,-1.043516 0.509323,-0.328719 1.630865,-1.003697 2.492296,-1.49995 3.197278,-1.841817 6.482557,-5.514525 8.075666,-9.028006 1.617001,-3.56624 1.732703,-4.401027 1.733973,-12.51175 0.0026,-8.280135 -0.116972,-9.083463 -1.89865,-12.892801 -1.379114,-2.94857 -1.193588,-2.865412 -5.109104,-2.289625 -7.947449,1.168717 -18.557903,1.167341 -26.463362,-0.0034 -3.838708,-0.56851 -3.50057,-0.721254 -4.917838,2.221283 -1.712701,3.555841 -1.958816,5.184854 -1.958816,12.964583 0,6.051312 0.06662,7.187248 0.527024,8.98742 1.429411,5.588926 4.799065,9.929284 10.211382,13.15294 2.377652,1.416156 2.638267,1.532441 4.662541,2.080208 2.410037,0.652198 7.927473,0.578352 10.263638,-0.137346 z m -3.607382,-10.244402 -1.963473,-1.903889 -1.785277,1.771598 c -0.981895,0.974381 -2.017421,1.771597 -2.30116,1.771597 -0.28374,0 -1.316594,-0.794571 -2.295208,-1.765697 l -1.779349,-1.765697 -1.197954,1.104238 c -0.658866,0.607325 -1.353186,1.104239 -1.542892,1.104239 -0.189706,0 -1.037643,-0.700035 -1.884336,-1.555644 -1.287807,-1.30138 -1.495557,-1.636554 -1.271032,-2.050521 0.360124,-0.663998 5.463831,-5.654252 5.782787,-5.654252 0.258445,0 0.531892,0.231405 2.942114,2.489782 l 1.399963,1.311778 1.913546,-1.900793 c 1.05246,-1.045422 2.012739,-1.900767 2.133971,-1.900767 0.121232,0 1.100693,0.853546 2.176595,1.896798 l 1.95617,1.896798 1.956171,-1.896798 c 1.075901,-1.043252 2.060204,-1.896798 2.187337,-1.896798 0.405341,0 5.910659,5.680525 5.910659,6.098778 0,0.506757 -2.664671,3.161639 -3.173306,3.161639 -0.208201,0 -0.886672,-0.498687 -1.507729,-1.108207 l -1.129162,-1.108208 -1.961489,1.901958 c -1.078838,1.046083 -2.105951,1.901957 -2.282481,1.901957 -0.17653,0 -1.204542,-0.856747 -2.284465,-1.903889 z M 60.982682,44.90737 c -0.184679,-0.184679 -0.3175,-1.070081 -0.3175,-2.116667 v -1.799166 h -1.84277 c -1.55112,0 -1.886135,-0.08099 -2.116667,-0.511784 -0.398092,-0.743796 -0.348456,-3.859477 0.06697,-4.204229 0.187484,-0.155601 1.110219,-0.319008 2.050521,-0.363141 l 1.709659,-0.08022 0.08022,-1.709658 c 0.04413,-0.940303 0.207539,-1.863037 0.363141,-2.050521 0.186796,-0.225081 0.987716,-0.340863 2.357861,-0.340863 2.458879,0 2.622735,0.163486 2.622735,2.616835 v 1.593321 l 1.91823,0.07773 1.918229,0.07773 v 2.38125 2.38125 l -1.918229,0.07773 -1.91823,0.07773 v 1.593321 c 0,2.449513 -0.166396,2.616835 -2.60223,2.616835 -1.245129,0 -2.179505,-0.125068 -2.371937,-0.3175 z m 16.678435,0.0098 c -0.195712,-0.195818 -0.327184,-1.05029 -0.327184,-2.126457 v -1.799166 h -1.799166 c -1.046586,0 -1.931988,-0.132821 -2.116667,-0.3175 -0.351341,-0.35134 -0.437568,-3.846486 -0.107686,-4.365414 0.116232,-0.18288 0.983324,-0.351022 2.046447,-0.396875 l 1.844781,-0.07959 0.07771,-1.763131 c 0.04763,-1.080214 0.217249,-1.878965 0.437938,-2.062109 0.219975,-0.182563 1.168374,-0.268711 2.435834,-0.221245 l 2.075603,0.07774 0.132292,1.984375 0.132292,1.984375 1.984375,0.132291 1.984375,0.132292 v 2.38125 2.38125 l -1.984375,0.132292 -1.984375,0.132291 -0.132292,1.984375 -0.132292,1.984376 -2.120212,0.07583 c -1.422268,0.05088 -2.227898,-0.03186 -2.447396,-0.251354 z m 0.696727,-21.669561 c 1.931036,-0.154834 4.00865,-0.366606 4.616953,-0.470588 l 1.106012,-0.189044 -1.262169,-0.86876 c -6.514888,-4.484185 -15.316703,-4.634124 -21.930467,-0.373565 -0.847698,0.546074 -1.542309,1.071007 -1.543606,1.166495 0,0.09549 0.622777,0.259609 1.386761,0.364755 4.589939,0.631639 12.339929,0.794623 17.626516,0.370707 z"
         style="display:inline;fill:#efdaaa;stroke-width:0.264583" />
      <path
         sodipodi:nodetypes="cssssssssssssssssscsccssssscccssccssssssssssssssssssssssssssssssscscssscsscssscccccccssccsscccccsscssscccccccssss"
         id="path287"
         d="M 63.443307,77.643314 C 57.192976,76.646602 51.099251,74.166345 45.054765,70.15886 41.300777,67.669977 35.742727,62.235197 33.084458,58.454037 28.93931,52.55793 26.271754,46.000787 24.904097,38.345703 24.362944,35.316859 24.448246,26.449269 25.050438,23.132162 26.081069,17.454865 28.629536,10.830307 31.612713,6.0739977 42.779348,-11.729894 64.648035,-20.042203 84.874559,-14.170834 c 16.352331,4.746757 29.322161,18.6721749 32.894931,35.318621 2.60337,12.12969 0.43839,24.554709 -6.10849,35.057292 -3.08252,4.945062 -7.79687,9.946507 -12.654383,13.42509 -4.647512,3.328168 -11.899266,6.570848 -17.066896,7.631616 -2.61112,0.535993 -2.489121,0.796898 -2.489121,-5.3231 0,-3.161797 0.111099,-5.524949 0.274082,-5.829485 0.15076,-0.281675 0.850503,-0.804227 1.555036,-1.16123 4.113239,-2.084334 7.911703,-6.544521 9.573922,-11.241775 1.140328,-3.222387 1.374537,-5.61049 1.227693,-12.518179 -0.111786,-5.257853 -0.213122,-6.430777 -0.698897,-8.08863 -0.570283,-1.946354 -1.787049,-4.606369 -2.696792,-5.895578 l -0.487495,-0.690853 -1.926378,0.333295 c -8.186262,1.416394 -21.33243,1.416156 -29.520226,0 l -1.929263,-0.333798 -1.048702,1.881981 c -0.576792,1.035077 -1.369246,2.834481 -1.761041,3.998648 -0.691859,2.055866 -0.715248,2.326164 -0.813699,9.410727 -0.09321,6.708828 -0.05654,7.483713 0.457226,9.657291 1.351413,5.717593 5.055103,10.608522 10.221093,13.497508 l 1.68783,0.943874 0.07144,5.460127 0.07146,5.460127 2.099998,0.478578 c 1.155012,0.263234 2.157121,0.535702 2.226919,0.605499 0.232462,0.232437 -2.447053,0.07898 -4.591501,-0.262995 z M 80.905809,23.488688 c 4.120912,-0.419471 4.181369,-0.456459 2.613898,-1.599618 -1.745827,-1.273228 -4.080616,-2.416757 -6.45967,-3.163808 -2.56204,-0.804492 -7.870164,-0.871247 -10.574021,-0.132954 -3.363119,0.918316 -8.546783,3.920094 -7.633044,4.420236 0.324828,0.1778 4.797425,0.650107 8.426794,0.889899 2.340584,0.154649 10.466071,-0.0921 13.626043,-0.413755 z M 65.427683,56.205079 c -0.937472,-0.945886 -1.892142,-1.719792 -2.121483,-1.719792 -0.229314,0 -0.882015,0.47625 -1.450393,1.058333 -0.568378,0.582084 -1.162579,1.058334 -1.320403,1.058334 -0.430186,0 -2.780639,-2.472055 -2.780639,-2.924466 0,-0.515568 5.050579,-5.542201 5.568633,-5.542201 0.219869,0 1.166813,0.773906 2.104285,1.719792 0.937471,0.945885 1.83044,1.719791 1.984375,1.719791 0.153934,0 1.046903,-0.773906 1.984375,-1.719791 0.937472,-0.945886 1.890607,-1.719792 2.118069,-1.719792 0.227436,0 1.064313,0.663628 1.85973,1.474708 2.239275,2.283486 2.13868,2.277136 4.221295,0.266541 0.991976,-0.957686 2.025782,-1.741249 2.297324,-1.741249 0.505328,0 5.643166,4.950804 5.643166,5.437743 0,0.147876 -0.640715,0.901647 -1.423829,1.674998 -1.584034,1.564375 -1.749398,1.567153 -3.189737,0.05379 -0.427408,-0.449104 -0.907098,-0.816531 -1.06598,-0.816531 -0.158882,0 -1.055899,0.773906 -1.993371,1.719792 -0.937472,0.945885 -1.889972,1.719791 -2.116667,1.719791 -0.226695,0 -1.179195,-0.773906 -2.116667,-1.719791 -0.937471,-0.945886 -1.83044,-1.719792 -1.984375,-1.719792 -0.153934,0 -1.046903,0.773906 -1.984375,1.719792 -0.937472,0.945885 -1.889972,1.719791 -2.116667,1.719791 -0.226695,0 -1.179195,-0.773906 -2.116666,-1.719791 z M 61.060046,44.629558 c -0.06472,-0.181901 -0.150283,-1.104636 -0.190129,-2.050521 l -0.07244,-1.719792 -1.844781,-0.07959 c -1.063122,-0.04585 -1.930215,-0.213995 -2.046446,-0.396875 -0.240956,-0.379015 -0.277337,-3.140789 -0.04921,-3.735228 0.122079,-0.318109 0.550519,-0.419497 1.785938,-0.422566 0.893921,-0.0026 1.768131,-0.09483 1.942624,-0.205767 0.18288,-0.116231 0.351022,-0.983324 0.396875,-2.046446 l 0.07959,-1.844781 1.942704,-0.07824 c 1.171971,-0.04717 2.085869,0.04059 2.303542,0.221244 0.221376,0.183727 0.390869,0.980837 0.438546,2.062613 l 0.07771,1.76313 1.928733,0.07795 1.928733,0.07795 -0.07665,2.171012 -0.07665,2.171012 -1.852083,0.132291 -1.852083,0.132292 -0.08022,1.709658 c -0.04413,0.940303 -0.207539,1.863037 -0.363141,2.050521 -0.385154,0.464079 -4.156445,0.472943 -4.321149,0.01005 z m 16.668751,0 c -0.06472,-0.181901 -0.150283,-1.104636 -0.190129,-2.050521 l -0.07244,-1.719792 -1.984375,-0.132292 -1.984375,-0.132291 v -2.116667 -2.116667 l 1.455208,-0.06858 c 2.668059,-0.125756 2.61247,-0.07948 2.700444,-2.248667 l 0.07768,-1.916086 1.958737,-0.07856 c 1.171417,-0.04699 2.075392,0.03786 2.248959,0.211085 0.159623,0.159305 0.349753,1.087623 0.422513,2.06293 l 0.132292,1.77329 1.852083,0.132292 1.852084,0.132291 v 2.116667 2.116667 l -1.91823,0.07773 -1.918229,0.07774 v 1.593321 c 0,2.435754 -0.175154,2.616835 -2.531163,2.616835 -1.347523,0 -2.021099,-0.106019 -2.101057,-0.330729 z"
         style="display:inline;fill:#eb9d99;stroke-width:0.264583" />
      <path
         sodipodi:nodetypes="sssssssssssscsssssssssssssssssscsssssssssssssscssscssscssssssssssssscsscccccccssscsscsssssscssccccccccccccssccccs"
         id="path281"
         d="M 59.961523,76.713753 C 46.57641,73.200298 35.675073,64.345911 29.499751,51.971745 26.26559,45.49112 24.681847,38.693736 24.681847,31.29334 c 0,-4.580572 0.315092,-7.246329 1.355619,-11.46847 C 28.857448,8.3820905 35.608398,-1.2336882 45.45164,-7.8278193 59.681858,-17.360889 77.727448,-18.451793 92.93599,-10.69839 c 4.676035,2.3838432 7.77211,4.6736003 11.92768,8.8212087 5.27291,5.2628271 8.84285,10.9068659 11.22191,17.7417153 2.90888,8.356997 3.30636,18.47133 1.06489,27.098254 -4.34808,16.73487 -17.965312,30.072119 -34.665972,33.953239 -1.169009,0.271674 -2.270337,0.445664 -2.447396,0.386636 -0.23913,-0.07972 -0.321919,-1.528816 -0.321919,-5.635414 0,-5.449967 0.0085,-5.533178 0.595313,-5.887482 4.425183,-2.671392 6.633501,-4.625551 8.513789,-7.533878 2.665863,-4.123425 3.311182,-6.668188 3.50319,-13.814769 0.166211,-6.186699 -0.101203,-9.236736 -1.078706,-12.303125 -0.884212,-2.773786 -2.518569,-5.573501 -3.215376,-5.508096 -0.282152,0.02649 -1.763157,0.235135 -3.291126,0.463656 -5.221473,0.780971 -12.697249,1.076722 -18.454689,0.730118 -2.874036,-0.173038 -6.475677,-0.501571 -8.003646,-0.730118 -1.527969,-0.228521 -3.002809,-0.437171 -3.27742,-0.463656 -0.642462,-0.06197 -2.774157,3.975947 -3.483081,6.597783 -0.62828,2.323412 -0.882095,13.615405 -0.376979,16.769688 1.004703,6.27388 4.631426,11.563086 10.165822,14.825716 1.174776,0.692573 2.024459,1.380357 2.105845,1.704631 0.07506,0.298979 0.151448,2.863453 0.169783,5.698834 0.02662,4.11562 -0.03797,5.166995 -0.320225,5.21372 -0.194442,0.03217 -1.682221,-0.290248 -3.306154,-0.716518 z M 81.662649,23.395184 c 1.725957,-0.201083 3.195294,-0.422804 3.265223,-0.492707 0.235559,-0.235585 -2.418212,-2.023507 -4.55123,-3.066309 -3.156982,-1.543394 -5.022215,-1.964214 -8.731251,-1.96985 -2.51124,-0.0037 -3.614367,0.1202 -5.276691,0.593223 -2.385986,0.67892 -5.607527,2.272188 -7.12695,3.524699 -0.911278,0.751205 -0.970121,0.867093 -0.524113,1.032087 0.468948,0.173487 5.257298,0.668655 8.562129,0.885428 2.596356,0.170312 11.162824,-0.131418 14.382883,-0.506571 z M 65.427683,55.940495 C 64.490211,54.99461 63.535541,54.220704 63.3062,54.220704 c -0.229314,0 -0.882015,0.47625 -1.450393,1.058333 -0.568378,0.582083 -1.163082,1.058333 -1.321514,1.058333 -0.42881,0 -2.514944,-2.207366 -2.514944,-2.661073 0,-0.5148 4.786789,-5.276427 5.304287,-5.276427 0.219737,0 1.166575,0.773906 2.104047,1.719792 0.937471,0.945885 1.818005,1.719792 1.956699,1.719792 0.138695,0 1.131782,-0.852885 2.206864,-1.895317 l 1.954635,-1.895316 1.90807,1.895316 c 1.049417,1.042432 2.081054,1.895317 2.292482,1.895317 0.211429,0 1.245182,-0.855001 2.297192,-1.9 l 1.912753,-1.899973 2.657528,2.610962 c 1.461638,1.436052 2.657528,2.742009 2.657528,2.902135 0,0.160126 -0.589995,0.872278 -1.311117,1.582552 l -1.311116,1.291378 -1.196525,-1.102889 c -0.658072,-0.60661 -1.351439,-1.102915 -1.540775,-1.102915 -0.189362,0 -1.111329,0.773906 -2.048801,1.719791 -0.937472,0.945886 -1.889972,1.719792 -2.116667,1.719792 -0.226695,0 -1.179195,-0.773906 -2.116667,-1.719792 -0.937471,-0.945885 -1.889971,-1.719791 -2.116666,-1.719791 -0.226695,0 -1.179195,0.773906 -2.116667,1.719791 -0.937472,0.945886 -1.830441,1.719792 -1.984375,1.719792 -0.153935,0 -1.046904,-0.773906 -1.984375,-1.719792 z M 61.381224,44.52981 c -0.10279,-0.102791 -0.186875,-0.926359 -0.186875,-1.830176 0,-1.017958 -0.129725,-1.75096 -0.340863,-1.926193 -0.187484,-0.155602 -1.110218,-0.319008 -2.050521,-0.363141 l -1.709658,-0.08022 -0.07758,-1.910318 c -0.08845,-2.177759 -0.148722,-2.125292 2.591118,-2.254435 l 1.455208,-0.06858 0.07795,-1.929156 0.07797,-1.92913 2.038694,0.07705 2.038721,0.07707 0.132292,1.852084 0.132291,1.852083 1.709658,0.08022 c 0.940303,0.04413 1.863038,0.207539 2.050521,0.36314 0.350917,0.291227 0.476489,2.731823 0.180261,3.503745 -0.122079,0.318109 -0.550519,0.419497 -1.785938,0.422566 -0.893921,0.0026 -1.768131,0.09483 -1.942623,0.205767 -0.18288,0.116231 -0.351023,0.983324 -0.396875,2.046446 l -0.07959,1.844781 -1.863646,0.07662 c -1.024996,0.04218 -1.94773,-0.0074 -2.050521,-0.110225 z M 77.8631,42.887144 c 0,-1.17094 -0.122873,-1.932781 -0.340863,-2.113703 -0.187483,-0.155602 -1.110218,-0.319008 -2.050521,-0.363141 l -1.709658,-0.08022 -0.07758,-1.910318 C 73.596032,36.242001 73.53576,36.294468 76.2756,36.165325 l 1.455208,-0.06858 0.07795,-1.929156 0.07797,-1.92913 2.038694,0.07705 2.038721,0.07707 0.0775,1.906879 0.07752,1.906852 1.906853,0.07752 1.906878,0.0775 0.07729,2.050521 0.07726,2.050521 -1.664758,0.004 c -0.915644,0.0026 -1.807581,0.09483 -1.982073,0.205766 -0.18288,0.116232 -0.351023,0.983324 -0.396875,2.046447 l -0.07959,1.84478 -2.050521,0.07728 -2.050521,0.07726 v -1.830811 z"
         style="display:inline;fill:#f0c542;stroke-width:0.264583" />
      <path
         sodipodi:nodetypes="sssssssssssscsssssssssssssssssssscsssssscssssscsssscssccssssssssscssscssscssssssssssssscsscccccccssscsscssscsscssccccccccccccssccccc"
         id="path277"
         d="M 59.96152,76.713753 C 46.57641,73.200298 35.675073,64.345911 29.499751,51.971745 26.26559,45.49112 24.681847,38.693736 24.681847,31.29334 c 0,-4.580572 0.315092,-7.246329 1.355619,-11.46847 C 28.857448,8.3820905 35.608398,-1.2336882 45.45164,-7.8278193 59.681858,-17.360889 77.727448,-18.451793 92.93599,-10.69839 c 4.676035,2.3838432 7.77211,4.6736003 11.92768,8.8212087 5.27291,5.2628271 8.84285,10.9068659 11.22191,17.7417153 2.90888,8.356997 3.30636,18.47133 1.06489,27.098254 -4.34808,16.73487 -17.965312,30.072119 -34.665972,33.953239 -1.169009,0.271674 -2.270337,0.445664 -2.447396,0.386636 -0.23913,-0.07972 -0.321919,-1.528816 -0.321919,-5.635414 0,-5.449967 0.0085,-5.533178 0.595313,-5.887482 5.641102,-3.405425 8.413036,-6.339945 10.358623,-10.966132 1.447007,-3.440721 1.598586,-4.620657 1.588718,-12.36689 -0.009,-7.02855 -0.0209,-7.182141 -0.737209,-9.525 -1.022377,-3.343592 -2.331932,-5.608055 -4.754166,-8.220948 -3.077395,-3.319621 -6.177942,-5.245524 -10.241572,-6.361536 -2.590403,-0.711412 -7.435003,-0.65405 -10.15619,0.12028 -2.487243,0.707734 -5.727859,2.337646 -7.266782,3.654927 -1.030949,0.882465 -1.180994,0.930857 -2.348706,0.757793 -2.465256,-0.365363 -7.270354,-1.740958 -9.135428,-2.615274 -2.212446,-1.037166 -3.092186,-1.793954 -3.092186,-2.659988 0,-0.967105 2.392759,-2.573496 4.988481,-3.349043 0.633598,-0.189283 1.213353,-0.504005 1.288309,-0.699347 0.07496,-0.195342 -0.03924,-0.976471 -0.253735,-1.735825 -0.359437,-1.272276 -0.450401,-1.378109 -1.158849,-1.348502 -1.101725,0.04604 -4.51567,1.540034 -5.984743,2.619005 -4.556231,3.346397 -3.388096,7.907284 2.735792,10.681467 1.676268,0.759381 5.33109,1.934898 7.115995,2.288752 0.509323,0.100965 1.009492,0.232542 1.111489,0.292364 0.101997,0.05982 -0.38534,1.219756 -1.082993,2.57765 -2.024407,3.940255 -2.238137,5.083361 -2.355453,12.597183 -0.06638,4.251378 0.0082,7.165235 0.216561,8.466667 1.004703,6.27388 4.631426,11.563086 10.165822,14.825716 1.174776,0.692573 2.024459,1.380357 2.105845,1.704631 0.07506,0.298979 0.151448,2.863453 0.169783,5.698834 0.02662,4.11562 -0.03797,5.166995 -0.320225,5.21372 -0.194442,0.03217 -1.682221,-0.290248 -3.306154,-0.716518 z M 99.26911,22.517376 c 2.14141,-1.442561 2.99844,-2.643981 3.14476,-4.408355 0.15549,-1.874997 -0.21548,-2.732723 -1.83856,-4.250929 C 97.607791,11.082349 91.502927,9.1432438 82.228725,8.030618 75.947358,7.2770317 60.158293,7.5259253 59.292048,8.3921711 c -0.230611,0.2306108 0.01429,2.7441789 0.314589,3.2302449 0.153697,0.248708 0.831215,0.249211 3.075226,0.0026 4.149223,-0.456592 14.553196,-0.395288 18.885404,0.111284 6.319097,0.738875 11.334221,1.954927 14.417649,3.495886 1.434121,0.716704 2.780269,1.858328 2.780269,2.357861 0,0.708475 -1.211554,1.759797 -3.043344,2.640833 l -1.948392,0.937154 0.498952,1.450234 c 0.274425,0.797613 0.568907,1.563423 0.65442,1.701774 0.220107,0.356103 2.611967,-0.636667 4.342289,-1.802342 z M 65.427683,55.940495 C 64.490211,54.99461 63.535541,54.220704 63.3062,54.220704 c -0.229314,0 -0.882015,0.47625 -1.450393,1.058333 -0.568378,0.582083 -1.163082,1.058333 -1.321514,1.058333 -0.42881,0 -2.514944,-2.207366 -2.514944,-2.661073 0,-0.5148 4.786789,-5.276427 5.304287,-5.276427 0.219737,0 1.166575,0.773906 2.104047,1.719792 0.937471,0.945885 1.818005,1.719792 1.956699,1.719792 0.138695,0 1.131782,-0.852885 2.206864,-1.895317 l 1.954635,-1.895316 1.90807,1.895316 c 1.049417,1.042432 2.081054,1.895317 2.292482,1.895317 0.211429,0 1.245182,-0.855001 2.297192,-1.9 l 1.912753,-1.899973 2.657528,2.610962 c 1.461638,1.436052 2.657528,2.742009 2.657528,2.902135 0,0.160126 -0.589995,0.872278 -1.311117,1.582552 l -1.311116,1.291378 -1.196525,-1.102889 c -0.658072,-0.60661 -1.351439,-1.102915 -1.540775,-1.102915 -0.189362,0 -1.111329,0.773906 -2.048801,1.719791 -0.937472,0.945886 -1.889972,1.719792 -2.116667,1.719792 -0.226695,0 -1.179195,-0.773906 -2.116667,-1.719792 -0.937471,-0.945885 -1.889971,-1.719791 -2.116666,-1.719791 -0.226695,0 -1.179195,0.773906 -2.116667,1.719791 -0.937472,0.945886 -1.830441,1.719792 -1.984375,1.719792 -0.153935,0 -1.046904,-0.773906 -1.984375,-1.719792 z M 61.381224,44.52981 c -0.10279,-0.102791 -0.186875,-0.926359 -0.186875,-1.830176 0,-1.017958 -0.129725,-1.75096 -0.340863,-1.926193 -0.187484,-0.155602 -1.110218,-0.319008 -2.050521,-0.363141 l -1.709658,-0.08022 -0.07758,-1.910318 c -0.08845,-2.177759 -0.148722,-2.125292 2.591118,-2.254435 l 1.455208,-0.06858 0.07795,-1.929156 0.07797,-1.92913 2.038694,0.07705 2.038721,0.07707 0.132292,1.852084 0.132291,1.852083 1.709658,0.08022 c 0.940303,0.04413 1.863038,0.207539 2.050521,0.36314 0.350917,0.291227 0.476489,2.731823 0.180261,3.503745 -0.122079,0.318109 -0.550519,0.419497 -1.785938,0.422566 -0.893921,0.0026 -1.768131,0.09483 -1.942623,0.205767 -0.18288,0.116231 -0.351023,0.983324 -0.396875,2.046446 l -0.07959,1.844781 -1.863646,0.07662 c -1.024996,0.04218 -1.94773,-0.0074 -2.050521,-0.110225 z M 77.8631,42.887144 c 0,-1.17094 -0.122873,-1.932781 -0.340863,-2.113703 -0.187483,-0.155602 -1.110218,-0.319008 -2.050521,-0.363141 l -1.709658,-0.08022 -0.07758,-1.910318 C 73.596032,36.242001 73.53576,36.294468 76.2756,36.165325 l 1.455208,-0.06858 0.07795,-1.929156 0.07797,-1.92913 2.038694,0.07705 2.038721,0.07707 0.0775,1.906879 0.07752,1.906852 1.906853,0.07752 1.906878,0.0775 0.07729,2.050521 0.07726,2.050521 -1.664758,0.004 c -0.915644,0.0026 -1.807581,0.09483 -1.982073,0.205766 -0.18288,0.116232 -0.351023,0.983324 -0.396875,2.046447 l -0.07959,1.84478 -2.050521,0.07728 -2.050521,0.07726 v -1.83084 z"
         style="display:inline;fill:#eb706f;stroke-width:0.264583" />
      <path
         sodipodi:nodetypes="csssscsssssscccsssssscssssssssssssssssccccssssscsssssssssssssssssssssssscsssscssssssscccccccssscsscccccsssssscccccccsssscccccccssss"
         id="path271"
         d="M 59.374942,76.558231 C 51.104278,74.371053 43.185801,69.554155 37.138351,63.031461 31.30368,56.738267 27.157341,48.568066 25.466892,40.033375 24.749024,36.40898 24.487087,29.709412 24.919786,26.040409 26.212779,15.077028 30.868758,5.4335738 38.482726,-2.0510125 c 4.33152,-4.2579397 7.961022,-6.8275466 12.997948,-9.2022345 16.272485,-7.671885 35.064967,-5.561516 49.258536,5.5316434 2.83832,2.2183461 7.00617,6.60146005 9.20645,9.6820303 2.11127,2.9559515 5.16067,8.9404293 6.26372,12.2925683 2.91899,8.870844 3.15896,18.441062 0.68969,27.504999 -3.40114,12.484391 -12.03828,23.073942 -23.753583,29.122926 -3.492209,1.803135 -9.395328,3.926549 -11.80428,4.246112 l -1.372156,0.182007 0.07149,-5.633349 0.07152,-5.63335 1.846395,-1.082172 c 2.461234,-1.442535 6.106743,-5.067988 7.531736,-7.490328 0.61804,-1.050634 1.49352,-3.015165 1.945455,-4.365625 0.821505,-2.454778 0.821743,-2.45708 0.923396,-9.406573 0.131286,-8.974693 -0.353193,-11.637248 -2.874381,-15.797212 -1.063651,-1.755008 -4.685401,-5.558632 -6.401435,-6.722904 -3.342032,-2.267453 -7.301601,-3.470328 -11.41402,-3.467471 -5.071825,0.0034 -8.722784,1.320509 -13.525131,4.878864 -0.483261,0.358087 -0.82595,0.33237 -3.439583,-0.257916 -6.427788,-1.451716 -10.414636,-3.335628 -10.134733,-4.789011 0.141869,-0.7366 2.109973,-2.08108 4.234551,-2.892769 1.066456,-0.407432 2.036233,-0.822484 2.155084,-0.922311 0.215,-0.180605 -0.503476,-3.112109 -0.856853,-3.496125 -0.233125,-0.2533384 -2.707508,0.589333 -4.900296,1.66886 -5.949103,2.928725 -6.224402,7.917762 -0.618225,11.203199 1.477142,0.86569 4.24315,1.900343 7.185634,2.687928 1.292093,0.345837 2.395696,0.675244 2.452476,0.731997 0.05675,0.05678 -0.437965,1.162579 -1.099397,2.457344 -1.847638,3.616854 -2.271951,5.661686 -2.437553,11.746838 -0.169492,6.228504 0.171556,9.836151 1.216448,12.867588 1.539611,4.466696 4.835102,8.569457 8.895848,11.075008 1.164167,0.718291 2.204138,1.429359 2.311056,1.580145 0.106918,0.150759 0.196215,2.68515 0.198438,5.631947 l 0.004,5.357813 -0.727604,-0.0127 c -0.400182,-0.0069 -1.843987,-0.307816 -3.20847,-0.668655 z M 97.42163,23.653417 c 2.6674,-1.278308 3.83667,-2.273009 4.66712,-3.97039 0.5784,-1.182264 0.67408,-1.653646 0.53022,-2.612866 C 101.90015,12.276625 93.27344,8.7903955 79.346037,7.6651226 73.561557,7.1977625 62.953378,7.4240607 59.770599,8.0827409 l -0.762317,0.1577446 0.168645,1.6134292 c 0.09274,0.8873863 0.278474,1.7232573 0.412724,1.8575073 0.14904,0.14904 1.943418,0.112607 4.608963,-0.09358 5.24375,-0.405633 14.516524,-0.210238 18.956153,0.399468 8.444627,1.159721 15.345834,3.649662 15.345834,5.53675 0,0.788326 -1.221925,1.861926 -3.103801,2.72706 -0.761206,0.349938 -1.45751,0.755174 -1.547336,0.900536 -0.229129,0.370734 0.94488,3.405717 1.317414,3.405717 0.168275,0 1.182899,-0.420264 2.254752,-0.933953 z M 65.295391,55.54362 c -1.010841,-1.018646 -1.933046,-1.852083 -2.04933,-1.852083 -0.116311,0 -0.728134,0.47625 -1.359615,1.058333 -0.631481,0.582084 -1.259496,1.058334 -1.395598,1.058334 -0.319246,0 -2.206916,-1.928707 -2.206916,-2.254885 0,-0.325835 4.544722,-4.888865 4.869233,-4.888865 0.137557,0 1.116912,0.840501 2.176357,1.867799 2.22885,2.161223 2.065205,2.170801 4.455504,-0.261091 0.868575,-0.883682 1.705452,-1.606708 1.85973,-1.606708 0.154279,0 1.047539,0.773906 1.98501,1.719791 0.937472,0.945886 1.889972,1.719792 2.116667,1.719792 0.226695,0 1.179195,-0.773906 2.116667,-1.719792 0.937472,-0.945885 1.829356,-1.719791 1.981967,-1.719791 0.152586,0 1.389301,1.116488 2.748228,2.481103 l 2.470785,2.481104 -0.985441,1.090771 c -0.541999,0.599917 -1.18745,1.090772 -1.434333,1.090772 -0.246882,0 -0.798565,-0.367427 -1.225973,-0.816531 -1.463807,-1.538023 -1.523947,-1.528577 -3.69951,0.580946 l -1.97239,1.912514 -1.95617,-1.896798 c -1.075902,-1.043252 -2.061369,-1.896798 -2.189904,-1.896798 -0.128561,0 -1.060794,0.833437 -2.071635,1.852083 -1.01084,1.018646 -1.96334,1.852084 -2.116666,1.852084 -0.153326,0 -1.105826,-0.833438 -2.116667,-1.852084 z M 61.651179,44.364974 C 61.339103,44.129363 61.191386,43.53966 61.137596,42.314453 L 61.062057,40.594662 59.209974,40.46237 57.35789,40.330078 v -1.852083 -1.852083 l 1.852084,-0.132292 1.852083,-0.132292 0.08022,-1.709658 c 0.04413,-0.940302 0.211852,-1.868223 0.372692,-2.062056 0.199681,-0.240586 0.803884,-0.32774 1.904154,-0.274717 l 1.611683,0.07768 0.06858,1.455209 c 0.125756,2.668058 0.07948,2.612469 2.248667,2.700443 l 1.916086,0.07768 v 1.852083 1.852083 l -1.984375,0.132292 -1.984375,0.132292 -0.07959,1.844781 c -0.04585,1.063122 -0.213995,1.930214 -0.396875,2.046446 -0.50882,0.32348 -2.68941,0.240242 -3.16775,-0.120915 z m 16.668751,0 C 78.007854,44.129363 77.860137,43.53966 77.806347,42.314453 l -0.07554,-1.719791 -1.852083,-0.132292 -1.852084,-0.132292 -0.0775,-1.906402 -0.0775,-1.906402 1.92958,-0.07797 1.92958,-0.07797 0.08022,-1.709658 c 0.04413,-0.940302 0.207539,-1.863037 0.363141,-2.050521 0.306969,-0.369861 2.783734,-0.467836 3.313509,-0.131048 0.18288,0.116232 0.351023,0.983324 0.396875,2.046447 l 0.07959,1.84478 1.984375,0.132292 1.984375,0.132292 v 1.852083 1.852083 l -1.984375,0.132292 -1.984375,0.132292 -0.07959,1.844781 c -0.04585,1.063122 -0.213995,1.930214 -0.396875,2.046446 -0.50882,0.32348 -2.68941,0.240242 -3.16775,-0.120915 z"
         style="display:inline;fill:#0a93e1;stroke-width:0.264583" />
      <path
         sodipodi:nodetypes="sssssssscsssssssssssssssscscsscccssscssssscsssssccsssssssssssssscsssscsssssssccccccsscccsscccsscssssscccccssscccssscccssscsss"
         id="path261"
         d="M 59.564674,76.307142 C 45.373111,72.411284 33.874266,62.266233 28.366778,48.782273 26.302949,43.729339 25.25377,38.779197 25.025223,33.01636 23.821871,2.6735463 51.283268,-20.634605 81.081598,-14.5621 c 22.275432,4.539456 38.166942,24.89417 37.175202,47.616137 -0.81907,18.766393 -12.41637,34.968418 -29.849313,41.701032 -2.188607,0.845238 -7.015639,2.219801 -7.795234,2.219801 -0.302154,0 -0.367903,-0.966575 -0.367903,-5.408453 v -5.408428 l 1.530165,-0.815578 c 3.575897,-1.905926 6.90044,-5.455893 8.785675,-9.381358 1.887273,-3.929724 1.987286,-4.603194 1.987286,-13.382016 0,-7.445111 -0.0286,-7.896754 -0.619919,-9.789584 -1.167686,-3.737689 -2.532512,-5.938414 -5.592974,-9.018376 -2.355189,-2.37019 -3.154442,-2.989844 -5.199883,-4.031615 -7.043421,-3.587273 -15.012142,-3.033871 -21.596563,1.499791 -1.114478,0.767345 -2.076054,1.23145 -2.551457,1.23145 -1.208511,0 -6.584289,-1.438724 -8.75882,-2.344129 -1.816947,-0.756523 -3.437679,-1.877906 -3.437679,-2.378498 0,-0.71755 1.70569,-1.893438 4.112975,-2.835434 2.623053,-1.026451 2.638293,-1.0482 2.094256,-2.987172 -0.249475,-0.889132 -0.618225,-1.753209 -0.819414,-1.920187 -0.737844,-0.6123519 -6.19297,1.862587 -8.124032,3.685778 -1.970484,1.860444 -2.327963,4.774195 -0.847725,6.910149 1.440577,2.078752 5.471213,4.207563 10.179474,5.376387 1.316382,0.326787 2.394956,0.688895 2.396861,0.804703 0.0026,0.115809 -0.521759,1.306434 -1.163638,2.645834 -1.960721,4.091278 -2.130055,5.12355 -2.135479,13.018611 -0.005,7.470246 0.125439,8.522997 1.50331,12.120245 1.587791,4.145333 4.964695,8.115644 8.965671,10.541186 l 1.961701,1.189249 0.07162,5.338736 0.07162,5.338709 -0.600789,-0.01931 C 62.126154,76.94498 60.8248,76.653141 59.564669,76.307225 Z M 97.249651,24.092679 C 103.14856,21.37464 104.63007,17.138767 100.90159,13.651215 97.97625,10.914894 92.263975,8.9686982 83.683934,7.7850846 79.43155,7.1984505 68.889703,6.9753273 63.972474,7.3678896 58.29814,7.8208563 58.709091,7.6171801 58.91872,9.8725942 c 0.09604,1.0335948 0.319961,2.0144578 0.497549,2.1796638 0.237649,0.221139 0.88146,0.226404 2.439538,0.01984 3.641964,-0.482547 16.91918,-0.370311 20.902085,0.176662 7.352507,1.009756 12.933866,2.688458 14.882813,4.476301 1.179169,1.081696 0.697336,1.720876 -2.513541,3.33457 -0.909506,0.457094 -1.653646,0.986763 -1.653646,1.177025 0,0.499957 0.822748,2.895097 1.128236,3.284458 0.380841,0.485405 0.81788,0.414682 2.647897,-0.428545 z M 65.295391,55.54362 c -1.010841,-1.018646 -1.933046,-1.852083 -2.04933,-1.852083 -0.116311,0 -0.728134,0.47625 -1.359615,1.058333 -0.631481,0.582084 -1.259496,1.058334 -1.395598,1.058334 -0.319246,0 -2.206916,-1.928707 -2.206916,-2.254885 0,-0.325835 4.544722,-4.888865 4.869233,-4.888865 0.137557,0 1.116912,0.840501 2.176357,1.867799 2.22885,2.161223 2.065205,2.170801 4.455504,-0.261091 0.868575,-0.883682 1.705452,-1.606708 1.85973,-1.606708 0.154279,0 1.047539,0.773906 1.98501,1.719791 0.937472,0.945886 1.889972,1.719792 2.116667,1.719792 0.226695,0 1.179195,-0.773906 2.116667,-1.719792 0.937472,-0.945885 1.829356,-1.719791 1.981967,-1.719791 0.152586,0 1.389301,1.116488 2.748228,2.481103 l 2.470785,2.481104 -0.985441,1.090771 c -0.541999,0.599917 -1.18745,1.090772 -1.434333,1.090772 -0.246882,0 -0.798565,-0.367427 -1.225973,-0.816531 -1.463807,-1.538023 -1.523947,-1.528577 -3.69951,0.580946 l -1.97239,1.912514 -1.95617,-1.896798 c -1.075902,-1.043252 -2.061369,-1.896798 -2.189904,-1.896798 -0.128561,0 -1.060794,0.833437 -2.071635,1.852083 -1.01084,1.018646 -1.96334,1.852084 -2.116666,1.852084 -0.153326,0 -1.105826,-0.833438 -2.116667,-1.852084 z M 61.589213,44.100391 C 61.524496,43.91849 61.43893,42.995756 61.399084,42.04987 l -0.07244,-1.719792 -1.91823,-0.07773 -1.918229,-0.07774 v -1.708203 -1.708203 l 1.653646,-0.004 c 0.909505,-0.0026 1.796442,-0.09483 1.970934,-0.205767 0.18288,-0.116231 0.351023,-0.983324 0.396875,-2.046446 l 0.07959,-1.844781 1.653646,-0.07877 1.653646,-0.07877 v 1.617504 c 0,2.43242 0.188859,2.641071 2.390563,2.641071 h 1.84277 v 1.719791 1.719792 h -1.84277 c -2.199931,0 -2.390563,0.209603 -2.390563,2.62845 V 44.4312 h -1.595808 c -1.037484,0 -1.636977,-0.115703 -1.713495,-0.33073 z m 16.673858,0.01323 c -0.06752,-0.18923 -0.15539,-1.117944 -0.195236,-2.063829 L 77.995395,40.33 76.01102,40.197708 74.026644,40.065417 v -1.5875 -1.5875 l 1.709659,-0.08022 c 0.940302,-0.04413 1.857825,-0.2032 2.038932,-0.353536 0.185341,-0.153802 0.363299,-1.044072 0.407035,-2.036445 l 0.07771,-1.763131 1.653646,-0.07877 1.653646,-0.07877 v 1.811788 c 0,1.056402 0.132371,1.944158 0.3175,2.129287 0.185129,0.185129 1.072885,0.3175 2.129287,0.3175 h 1.811788 l -0.07877,1.653646 -0.07877,1.653646 -1.709658,0.08022 c -0.940303,0.04413 -1.857825,0.2032 -2.038933,0.353537 -0.18534,0.153802 -0.363299,1.044072 -0.407035,2.036445 l -0.07771,1.76313 -1.524555,0.07945 c -1.070372,0.05577 -1.561148,-0.02302 -1.647349,-0.264584 z"
         style="display:inline;fill:#d83833;stroke-width:0.264583" />
      <path
         sodipodi:nodetypes="sssssssscsssssscsssssssscsscccsssssssssssssssssssccccccsscccsscccsscssssscccccssscccssscccssscsss"
         id="path255"
         d="M 59.564674,76.307142 C 45.373111,72.411284 33.874266,62.266233 28.366778,48.782273 26.302949,43.729339 25.25377,38.779197 25.025223,33.01636 23.821871,2.6735463 51.283268,-20.634605 81.081598,-14.5621 c 22.275432,4.539456 38.166942,24.89417 37.175202,47.616137 -0.81907,18.766393 -12.41637,34.968418 -29.849313,41.701032 -2.188607,0.845238 -7.015639,2.219801 -7.795234,2.219801 -0.302154,0 -0.367903,-0.966575 -0.367903,-5.408453 v -5.408428 l 1.530165,-0.815578 c 3.575897,-1.905926 6.90044,-5.455893 8.785675,-9.381358 1.887273,-3.929724 1.987286,-4.603194 1.987286,-13.382016 0,-7.445111 -0.0286,-7.896754 -0.619919,-9.789584 -1.807236,-5.784929 -5.622581,-10.3623 -10.915995,-13.09624 -6.876521,-3.551608 -14.9243,-2.96291 -21.513854,1.573689 l -1.828906,1.259152 -2.272136,-0.447913 c -5.277961,-1.040421 -10.341901,-3.17074 -10.341901,-4.35065 0,-0.753136 1.503812,-1.789006 4.022275,-2.770637 2.530687,-0.98642 2.645172,-1.206526 1.872007,-3.598651 -0.588196,-1.8198833 -0.903129,-1.8863202 -3.745178,-0.79031 -8.508154,3.281071 -9.535716,9.379056 -2.218981,13.168471 1.902513,0.985308 6.793786,2.697798 7.732263,2.707137 1.150356,0.01138 1.140407,0.401532 -0.0748,2.936479 -1.986042,4.142951 -2.153444,5.15612 -2.158895,13.066765 -0.005,7.470246 0.125439,8.522997 1.50331,12.120245 1.587791,4.145333 4.964695,8.115644 8.965671,10.541186 l 1.961701,1.189249 0.07162,5.338736 0.07162,5.338709 -0.600789,-0.01931 C 62.126151,76.94498 60.824797,76.653141 59.564666,76.307225 Z M 97.57456,24.074925 c 3.50393,-1.612371 5.42396,-3.899429 5.42396,-6.460808 0,-4.949031 -7.325733,-8.5139738 -20.769795,-10.1072947 -6.896391,-0.8172979 -22.324564,-0.4767527 -23.355566,0.5155671 -0.259133,0.2493963 -0.277733,0.7414684 -0.08067,2.1329916 0.14089,0.994833 0.367268,1.919896 0.503052,2.05568 0.152823,0.152823 1.443884,0.125704 3.387963,-0.07117 7.337029,-0.743029 18.620265,-0.255243 25.222625,1.090428 4.773772,0.972952 9.401414,2.800508 10.16778,4.015422 0.397007,0.629417 -0.405024,1.398852 -2.616015,2.509732 -1.018646,0.51181 -1.92831,1.050078 -2.021443,1.196155 -0.181902,0.285247 0.731176,3.282632 1.169802,3.840162 0.311997,0.396558 0.810154,0.276252 2.968308,-0.716862 z M 61.589213,44.100391 C 61.524496,43.91849 61.43893,42.995756 61.399084,42.04987 l -0.07244,-1.719792 -1.91823,-0.07773 -1.918229,-0.07774 v -1.708203 -1.708203 l 1.653646,-0.004 c 0.909505,-0.0026 1.796442,-0.09483 1.970934,-0.205767 0.18288,-0.116231 0.351023,-0.983324 0.396875,-2.046446 l 0.07959,-1.844781 1.653646,-0.07877 1.653646,-0.07877 v 1.617504 c 0,2.43242 0.188859,2.641071 2.390563,2.641071 h 1.84277 v 1.719791 1.719792 h -1.84277 c -2.199931,0 -2.390563,0.209603 -2.390563,2.62845 V 44.4312 h -1.595808 c -1.037484,0 -1.636977,-0.115703 -1.713495,-0.33073 z m 16.673858,0.01323 c -0.06752,-0.18923 -0.15539,-1.117944 -0.195236,-2.063829 L 77.995395,40.33 76.01102,40.197708 74.026644,40.065417 v -1.5875 -1.5875 l 1.709659,-0.08022 c 0.940302,-0.04413 1.857825,-0.2032 2.038932,-0.353536 0.185341,-0.153802 0.363299,-1.044072 0.407035,-2.036445 l 0.07771,-1.763131 1.653646,-0.07877 1.653646,-0.07877 v 1.811788 c 0,1.056402 0.132371,1.944158 0.3175,2.129287 0.185129,0.185129 1.072885,0.3175 2.129287,0.3175 h 1.811788 l -0.07877,1.653646 -0.07877,1.653646 -1.709658,0.08022 c -0.940303,0.04413 -1.857825,0.2032 -2.038933,0.353537 -0.18534,0.153802 -0.363299,1.044072 -0.407035,2.036445 l -0.07771,1.76313 -1.524555,0.07945 c -1.070372,0.05577 -1.561148,-0.02302 -1.647349,-0.264584 z"
         style="display:inline;fill:#452278;stroke-width:0.264583" />
      <path
         sodipodi:nodetypes="sssssssscsssssscsssssssscsscccsssssssssssssssss"
         id="path253"
         d="M 59.564674,76.307142 C 45.373111,72.411284 33.874266,62.266233 28.366778,48.782273 26.302949,43.729339 25.25377,38.779197 25.025223,33.01636 23.821871,2.6735463 51.283268,-20.634605 81.081598,-14.5621 c 22.275432,4.539456 38.166942,24.89417 37.175202,47.616137 -0.81907,18.766393 -12.41637,34.968418 -29.849313,41.701032 -2.188607,0.845238 -7.015639,2.219801 -7.795234,2.219801 -0.302154,0 -0.367903,-0.966575 -0.367903,-5.408453 v -5.408428 l 1.530165,-0.815578 c 3.575897,-1.905926 6.90044,-5.455893 8.785675,-9.381358 1.887273,-3.929724 1.987286,-4.603194 1.987286,-13.382016 0,-7.445111 -0.0286,-7.896754 -0.619919,-9.789584 -1.807236,-5.784929 -5.622581,-10.3623 -10.915995,-13.09624 -6.876521,-3.551608 -14.9243,-2.96291 -21.513854,1.573689 l -1.828906,1.259152 -2.272136,-0.447913 c -5.277961,-1.040421 -10.341901,-3.17074 -10.341901,-4.35065 0,-0.753136 1.503812,-1.789006 4.022275,-2.770637 2.530687,-0.98642 2.645172,-1.206526 1.872007,-3.598651 -0.588196,-1.8198833 -0.903129,-1.8863202 -3.745178,-0.79031 -8.508154,3.281071 -9.535716,9.379056 -2.218981,13.168471 1.902513,0.985308 6.793786,2.697798 7.732263,2.707137 1.150356,0.01138 1.140407,0.401532 -0.0748,2.936479 -1.986042,4.142951 -2.153444,5.15612 -2.158895,13.066765 -0.005,7.470246 0.125439,8.522997 1.50331,12.120245 1.587791,4.145333 4.964695,8.115644 8.965671,10.541186 l 1.961701,1.189249 0.07162,5.338736 0.07162,5.338709 -0.600789,-0.01931 C 62.126151,76.94498 60.824797,76.653141 59.564666,76.307225 Z M 97.57456,24.074925 c 3.50393,-1.612371 5.42396,-3.899429 5.42396,-6.460808 0,-4.949031 -7.325733,-8.5139738 -20.769795,-10.1072947 -6.896391,-0.8172979 -22.324564,-0.4767527 -23.355566,0.5155671 -0.259133,0.2493963 -0.277733,0.7414684 -0.08067,2.1329916 0.14089,0.994833 0.367268,1.919896 0.503052,2.05568 0.152823,0.152823 1.443884,0.125704 3.387963,-0.07117 7.337029,-0.743029 18.620265,-0.255243 25.222625,1.090428 4.773772,0.972952 9.401414,2.800508 10.16778,4.015422 0.397007,0.629417 -0.405024,1.398852 -2.616015,2.509732 -1.018646,0.51181 -1.92831,1.050078 -2.021443,1.196155 -0.181902,0.285247 0.731176,3.282632 1.169802,3.840162 0.311997,0.396558 0.810154,0.276252 2.968308,-0.716862 z"
         style="display:inline;fill:#014187;stroke-width:0.264583" />
    </g>
  </g>
</svg>
