<?xml version="1.0" encoding="UTF-8" standalone="no"?>
<svg
   xmlns:dc="http://purl.org/dc/elements/1.1/"
   xmlns:cc="http://creativecommons.org/ns#"
   xmlns:rdf="http://www.w3.org/1999/02/22-rdf-syntax-ns#"
   xmlns:svg="http://www.w3.org/2000/svg"
   xmlns="http://www.w3.org/2000/svg"
   xmlns:sodipodi="http://sodipodi.sourceforge.net/DTD/sodipodi-0.dtd"
   xmlns:inkscape="http://www.inkscape.org/namespaces/inkscape"
   inkscape:version="1.0 (4035a4fb49, 2020-05-01)"
   sodipodi:docname="sore-throat.svg"
   id="svg8"
   version="1.1"
   viewBox="0 0 94.557663 94.609294"
   height="94.609291mm"
   width="94.557663mm">
  <defs
     id="defs2">
    <clipPath
       id="clipPath26"
       clipPathUnits="userSpaceOnUse">
      <rect
         y="-30.994047"
         x="-380.24402"
         height="122.46429"
         width="686.40472"
         id="rect28"
         style="fill:#d62e80;stroke-width:0.264583" />
    </clipPath>
  </defs>
  <sodipodi:namedview
     inkscape:window-maximized="1"
     inkscape:window-y="-9"
     inkscape:window-x="-9"
     inkscape:window-height="1001"
     inkscape:window-width="1920"
     showguides="false"
     fit-margin-bottom="0"
     fit-margin-right="0"
     fit-margin-left="0"
     fit-margin-top="0"
     showgrid="false"
     inkscape:document-rotation="0"
     inkscape:current-layer="g243"
     inkscape:document-units="mm"
     inkscape:cy="252.85632"
     inkscape:cx="-613.58401"
     inkscape:zoom="0.49497475"
     inkscape:pageshadow="2"
     inkscape:pageopacity="0.0"
     borderopacity="1.0"
     bordercolor="#666666"
     pagecolor="#ffffff"
     id="base" />
  <metadata
     id="metadata5">
    <rdf:RDF>
      <cc:Work
         rdf:about="">
        <dc:format>image/svg+xml</dc:format>
        <dc:type
           rdf:resource="http://purl.org/dc/dcmitype/StillImage" />
        <dc:title></dc:title>
      </cc:Work>
    </rdf:RDF>
  </metadata>
  <g
     style="display:inline"
     transform="translate(121.40957,18.610213)"
     id="layer1"
     inkscape:groupmode="layer"
     inkscape:label="Layer 1">
    <g
       style="display:inline"
       transform="translate(-274.26821,-2.4693879)"
       id="g243">
      <path
         sodipodi:nodetypes="ssscssscssss"
         id="path295"
         d="M 196.39644,78.404123 C 184.7049,77.379154 174.6619,72.681635 166.402,64.374512 c -6.59897,-6.636729 -11.12999,-15.366391 -12.91259,-24.87795 -0.84209,-4.493313 -0.84095,-12.101725 0.003,-16.603081 3.61228,-19.2782562 18.13455,-34.170673 37.19762,-38.145747 6.34368,-1.322811 14.29888,-1.159166 20.78183,0.427461 17.81178,4.359249 31.20499,18.3368688 35.2397,36.777322 0.54022,2.468986 0.60489,3.465592 0.60028,9.249436 -0.006,7.244028 -0.30154,9.310132 -2.12119,14.816667 -5.44999,16.492511 -19.86513,28.944491 -36.87609,31.854008 -2.45509,0.41992 -9.57061,0.737235 -11.9176,0.531495 z"
         style="display:inline;fill:#fcecc1;stroke-width:0.264583" />
      <path
         sodipodi:nodetypes="ssscssscssssssssscsssssssssssssssssss"
         id="path293"
         d="m 196.39644,78.364912 c -7.26898,-0.39788 -15.37189,-3.13272 -21.96042,-7.411932 -10.99158,-7.138987 -18.50337,-18.419762 -20.94661,-31.456418 -0.84209,-4.493313 -0.84095,-12.101725 0.003,-16.603081 3.61228,-19.2782562 18.13455,-34.170673 37.19762,-38.145747 6.34368,-1.322811 14.29888,-1.159166 20.78183,0.427461 17.81178,4.359249 31.20499,18.3368688 35.2397,36.777322 0.54022,2.468986 0.60489,3.465592 0.60028,9.249436 -0.006,7.244028 -0.30154,9.310132 -2.12119,14.816667 -5.45163,16.497486 -19.89373,28.967801 -36.89186,31.855014 -2.2728,0.386053 -8.85817,0.65786 -11.90183,0.491278 z m 12.30313,-14.884506 c 1.4552,-0.308372 3.71739,-0.916834 5.02708,-1.35218 4.29839,-1.428723 10.18646,-4.688205 10.18646,-5.638932 0,-0.510275 -2.80501,-3.000216 -4.59872,-4.082203 -5.44071,-3.281813 -11.46234,-3.789786 -17.38408,-1.46648 l -1.77004,0.694452 -1.77041,-0.70829 c -2.14452,-0.857938 -5.18797,-1.468569 -7.31951,-1.468569 -3.21522,0 -7.35333,1.212056 -10.12433,2.96545 -1.37271,0.8686 -4.65791,3.830796 -4.65791,4.199916 0,0.303398 3.31501,2.434511 5.44412,3.499829 2.75217,1.377103 6.87985,2.742618 10.10602,3.343302 4.07646,0.758983 4.21196,0.768535 9.45298,0.666802 3.55809,-0.06906 5.43161,-0.234235 7.40834,-0.653097 z M 174.89801,32.122492 c 2.37249,-0.550228 4.04749,-1.305798 6.93788,-3.129545 4.28519,-2.703856 7.91816,-4.065429 12.76948,-4.785783 8.72186,-1.295083 17.56863,0.499745 24.00395,4.869894 2.13657,1.450922 3.95052,2.268035 6.4593,2.909676 2.09722,0.536363 6.78199,1.018434 6.78199,0.697839 0,-0.342927 -1.13554,-2.412656 -2.12405,-3.871543 -1.41668,-2.090737 -5.35644,-5.707935 -8.01762,-7.361184 -15.78292,-9.805141 -39.84326,-6.799369 -50.24332,6.276737 -1.49359,1.877906 -2.85043,4.175389 -2.85043,4.826529 0,0.397563 3.84469,0.132821 6.28282,-0.43262 z"
         style="display:inline;fill:#efdaaa;stroke-width:0.264583" />
      <path
         sodipodi:nodetypes="ssssssssssssssssscssssssssssssssssss"
         id="path287"
         d="m 192.2954,77.753248 c -2.54349,-0.388144 -6.68766,-1.524106 -9.26042,-2.538412 -15.3357,-6.046047 -26.39994,-19.518445 -29.4068,-35.807254 -0.57062,-3.0911 -0.76599,-10.366983 -0.37023,-13.786458 1.57665,-13.622047 9.222,-26.02701027 20.7894,-33.7318358 14.90919,-9.9307122 34.07524,-10.5825662 49.61898,-1.6875654 8.1552,4.6668532 15.18478,12.2715339 19.18968,20.7596052 5.25513,11.137847 5.99223,23.58689 2.08748,35.256074 -5.13226,15.337578 -17.65827,26.783824 -33.86267,30.943656 -2.4756,0.635502 -3.11396,0.684186 -9.92188,0.75684 -4.00182,0.04268 -7.99042,-0.03141 -8.86354,-0.16465 z M 204.20165,64.53485 c 6.91023,-0.667412 13.22761,-2.818024 18.41976,-6.270572 1.00148,-0.66593 1.82087,-1.36017 1.82087,-1.542706 0,-0.182563 -0.90689,-1.178851 -2.01528,-2.213981 -1.45254,-1.356518 -2.69002,-2.213001 -4.43177,-3.067288 -5.30215,-2.600589 -10.17797,-2.872184 -15.69898,-0.874448 l -2.17762,0.787956 -1.79494,-0.721175 c -0.98724,-0.396637 -2.91147,-0.904848 -4.27611,-1.129347 -4.33489,-0.713185 -9.0292,0.225186 -13.03661,2.60596 -2.1236,1.261586 -5.39276,4.315513 -5.10982,4.773375 0.10219,0.165311 1.09427,0.894371 2.20459,1.620096 7.19106,4.700165 16.82644,6.927401 26.09591,6.03213 z M 175.34084,32.265711 c 2.68158,-0.685827 4.02583,-1.304634 6.95233,-3.200453 1.34501,-0.8713 3.25279,-1.925638 4.2395,-2.342965 10.14389,-4.290351 23.20152,-3.312874 31.55879,2.362438 3.4898,2.369873 7.02751,3.551952 11.60227,3.876675 1.65602,0.117528 2.40046,0.07609 2.5347,-0.141129 0.4798,-0.776314 -3.56499,-6.490123 -6.14434,-8.679735 -7.523,-6.386301 -17.7038,-9.462876 -29.03056,-8.772816 -7.1388,0.434895 -13.96047,2.623317 -19.41227,6.227498 -3.02979,2.003001 -6.68866,5.730451 -8.32987,8.486034 -1.74877,2.936107 -1.66151,3.100149 1.52969,2.875809 1.3626,-0.09578 3.38751,-0.406876 4.49976,-0.691356 z"
         style="display:inline;fill:#eb9d99;stroke-width:0.264583" />
      <path
         sodipodi:nodetypes="sssssssssscssssssssssssssssssscssssssssssscssscssscss"
         id="path281"
         d="m 189.91415,77.101368 c -7.2327,-1.592474 -15.24384,-5.690024 -20.90209,-10.691046 -9.1908,-8.123264 -15.02732,-20.009776 -15.69651,-31.967223 -0.71972,-12.860046 2.98186,-24.109892 11.12528,-33.81221547 6.38358,-7.60555383 15.93096,-13.28028453 26.00249,-15.45521253 11.67609,-2.521426 24.36119,-0.272917 34.66041,6.1437577 10.07261,6.2754669 17.77207,16.7858282 20.59292,28.1109213 1.16084,4.660503 1.36025,6.386248 1.36025,11.771603 0,5.429145 -0.21172,7.242758 -1.37445,11.773959 -3.25086,12.668594 -11.59545,23.283571 -23.35684,29.711782 -4.41378,2.412339 -12.01584,4.837378 -15.03299,4.795468 -0.8269,-0.01164 -1.38441,-0.06059 -1.23889,-0.109115 0.14552,-0.04852 1.45521,-0.468259 2.91042,-0.932762 11.04863,-3.526763 19.81592,-13.279252 23.03449,-25.622991 0.84265,-3.231594 0.8087,-3.657547 -0.1525,-1.913731 -0.43373,0.786897 -1.28646,2.096585 -1.89495,2.910417 -1.24933,1.670976 -4.35803,4.786974 -4.77573,4.786974 -0.15115,0 -1.13789,-0.819812 -2.19273,-1.821815 -2.28132,-2.167044 -4.77668,-3.698346 -7.66858,-4.705933 -1.94778,-0.678656 -2.43332,-0.737922 -6.08542,-0.742897 -3.83868,-0.0053 -4.05442,0.02434 -6.58312,0.899425 -2.34654,0.812112 -2.69891,0.870453 -3.43959,0.569674 -2.74624,-1.115298 -4.13982,-1.417214 -7.11686,-1.541965 -3.60437,-0.151024 -5.54427,0.152771 -8.31866,1.302782 -2.56088,1.061535 -4.6363,2.43877 -6.64266,4.408091 -0.91482,0.897943 -1.80546,1.633458 -1.97914,1.634437 -0.66579,0.0037 -4.83967,-4.716436 -6.21958,-7.033684 -1.49434,-2.509467 -1.50001,-2.485919 -0.41426,1.725295 2.20549,8.554165 7.79661,16.540957 14.99714,21.422996 2.01615,1.366996 5.18668,2.860225 8.15694,3.84167 l 2.74313,0.906436 -1.45521,-0.0077 c -0.80037,-0.0042 -2.16959,-0.165073 -3.04271,-0.357319 z M 174.74913,32.667983 c 2.4806,-0.522816 4.96271,-1.637903 7.88898,-3.544173 5.37297,-3.500094 11.47151,-5.012796 19.05,-4.725167 6.67512,0.253312 11.74996,1.795303 16.48947,5.010308 3.46278,2.348945 7.1239,3.527187 11.85238,3.814366 2.25377,0.136896 2.87898,0.101309 2.87898,-0.163803 0,-0.898631 -1.4687,-6.723116 -2.29102,-9.08558 -2.99911,-8.616236 -8.098,-15.8864042 -13.79297,-19.6665063 -2.45078,-1.6267642 -3.82257,-2.0475046 -6.67018,-2.0458377 -3.02815,0.00265 -4.87534,0.6212681 -6.99135,2.3447904 -2.61866,2.1329386 -3.25276,2.1722821 -5.50439,0.34163 -0.76718,-0.6237287 -2.16879,-1.488731 -3.11467,-1.9221979 -1.54149,-0.706411 -1.99411,-0.788379 -4.36563,-0.7905221 -2.33495,-0.00265 -2.82853,0.083026 -4.20076,0.724535 -4.48159,2.0951296 -9.15771,6.8965234 -12.70778,13.0482976 -2.39649,4.152741 -5.03415,11.676618 -5.60676,15.993137 l -0.18576,1.400413 2.75156,-0.180499 c 1.51339,-0.09927 3.54732,-0.348218 4.5199,-0.553191 z"
         style="display:inline;fill:#f0c542;stroke-width:0.264583" />
      <path
         sodipodi:nodetypes="sssssssssscssssssssssssssssssscssssssssssscssscssscss"
         id="path277"
         d="m 189.91415,77.101368 c -7.2327,-1.592474 -15.24384,-5.690024 -20.90209,-10.691046 -9.1908,-8.123264 -15.02732,-20.009776 -15.69651,-31.967223 -0.71972,-12.860046 2.98186,-24.109892 11.12528,-33.81221547 6.38358,-7.60555383 15.93096,-13.28028453 26.00249,-15.45521253 11.67609,-2.521426 24.36119,-0.272917 34.66041,6.1437577 10.07261,6.2754669 17.77207,16.7858282 20.59292,28.1109213 1.16084,4.660503 1.36025,6.386248 1.36025,11.771603 0,5.429145 -0.21172,7.242758 -1.37445,11.773959 -3.25086,12.668594 -11.59545,23.283571 -23.35684,29.711782 -4.41378,2.412339 -12.01584,4.837378 -15.03299,4.795468 -0.8269,-0.01164 -1.38441,-0.06059 -1.23889,-0.109115 0.14552,-0.04852 1.45521,-0.468259 2.91042,-0.932762 11.04863,-3.526763 19.81592,-13.279252 23.03449,-25.622991 0.84265,-3.231594 0.8087,-3.657547 -0.1525,-1.913731 -0.43373,0.786897 -1.28646,2.096585 -1.89495,2.910417 -1.24933,1.670976 -4.35803,4.786974 -4.77573,4.786974 -0.15115,0 -1.13789,-0.819812 -2.19273,-1.821815 -2.28132,-2.167044 -4.77668,-3.698346 -7.66858,-4.705933 -1.94778,-0.678656 -2.43332,-0.737922 -6.08542,-0.742897 -3.83868,-0.0053 -4.05442,0.02434 -6.58312,0.899425 -2.34654,0.812112 -2.69891,0.870453 -3.43959,0.569674 -2.74624,-1.115298 -4.13982,-1.417214 -7.11686,-1.541965 -3.60437,-0.151024 -5.54427,0.152771 -8.31866,1.302782 -2.56088,1.061535 -4.6363,2.43877 -6.64266,4.408091 -0.91482,0.897943 -1.80546,1.633458 -1.97914,1.634437 -0.66579,0.0037 -4.83967,-4.716436 -6.21958,-7.033684 -1.49434,-2.509467 -1.50001,-2.485919 -0.41426,1.725295 2.20549,8.554165 7.79661,16.540957 14.99714,21.422996 2.01615,1.366996 5.18668,2.860225 8.15694,3.84167 l 2.74313,0.906436 -1.45521,-0.0077 c -0.80037,-0.0042 -2.16959,-0.165073 -3.04271,-0.357319 z M 174.74913,32.667983 c 2.4806,-0.522816 4.96271,-1.637903 7.88898,-3.544173 5.37297,-3.500094 11.47151,-5.012796 19.05,-4.725167 6.67512,0.253312 11.74996,1.795303 16.48947,5.010308 3.46278,2.348945 7.1239,3.527187 11.85238,3.814366 2.25377,0.136896 2.87898,0.101309 2.87898,-0.163803 0,-0.898631 -1.4687,-6.723116 -2.29102,-9.08558 -2.99911,-8.616236 -8.098,-15.8864042 -13.79297,-19.6665063 -2.45078,-1.6267642 -3.82257,-2.0475046 -6.67018,-2.0458377 -3.02815,0.00265 -4.87534,0.6212681 -6.99135,2.3447904 -2.61866,2.1329386 -3.25276,2.1722821 -5.50439,0.34163 -0.76718,-0.6237287 -2.16879,-1.488731 -3.11467,-1.9221979 -1.54149,-0.706411 -1.99411,-0.788379 -4.36563,-0.7905221 -2.33495,-0.00265 -2.82853,0.083026 -4.20076,0.724535 -4.48159,2.0951296 -9.15771,6.8965234 -12.70778,13.0482976 -2.39649,4.152741 -5.03415,11.676618 -5.60676,15.993137 l -0.18576,1.400413 2.75156,-0.180499 c 1.51339,-0.09927 3.54732,-0.348218 4.5199,-0.553191 z"
         style="display:inline;fill:#eb706f;stroke-width:0.264583" />
      <path
         sodipodi:nodetypes="ssssssssssssssscscsssssscscsssssssssssssssccccsssscssss"
         id="path271"
         d="M 188.0549,76.595855 C 173.06072,72.718677 160.56304,60.94628 155.55707,45.983986 c -1.74117,-5.204116 -2.15542,-8.045212 -2.15542,-14.782033 0,-5.1621 0.0807,-6.351587 0.60753,-8.951859 2.5373,-12.5236556 9.55138,-23.05616257 20.02997,-30.0774899 23.93114,-16.0354171 56.28936,-7.0589511 68.68306,19.0533079 3.60685,7.599256 5.1276,16.595672 4.20417,24.870833 -1.95371,17.507612 -12.93839,32.01342 -29.33356,38.736403 -2.6417,1.083257 -7.30038,2.420064 -8.32691,2.389372 -0.62937,-0.01879 -0.88398,0.118719 3.37304,-1.821629 9.81953,-4.475745 17.30724,-14.124279 19.99549,-25.765893 0.51541,-2.231893 0.94911,-5.468461 0.73279,-5.468461 -0.0676,0 -0.45117,0.900271 -0.85249,2.00062 -0.40132,1.100349 -1.2977,2.870782 -1.99197,3.934275 -1.42057,2.176119 -4.53313,5.59988 -5.31707,5.848694 -0.38443,0.121999 -0.93546,-0.224737 -2.16106,-1.359985 -5.98162,-5.540454 -13.90917,-7.122636 -21.15796,-4.22267 l -1.69506,0.678127 -1.583,-0.643202 c -4.30286,-1.74842 -9.20681,-1.897407 -13.63385,-0.414232 -3.01815,1.011185 -5.07222,2.239857 -7.37288,4.410181 -0.97625,0.920935 -1.9419,1.674442 -2.14592,1.674442 -0.41421,0 -3.99992,-3.58984 -5.02127,-5.027083 -1.11366,-1.567128 -1.98914,-3.230457 -2.64599,-5.027084 l -0.62873,-1.719791 -0.0824,0.99769 c -0.0453,0.54872 0.11615,1.97747 0.35885,3.175 2.3527,11.607404 9.46129,21.415032 19.07117,26.312125 1.43706,0.732314 3.05766,1.474073 3.60135,1.648354 1.08826,0.34888 1.56519,0.814891 0.81304,0.794438 -0.26324,-0.0071 -1.55343,-0.290909 -2.86705,-0.630581 z m 45.28492,-42.506504 c -0.41468,-4.461907 -2.30204,-10.831645 -4.65773,-15.719689 -2.63805,-5.473912 -6.49068,-10.4372838 -10.38302,-13.3765401 -3.01606,-2.2775598 -4.56311,-2.9272971 -7.36515,-3.0933232 -3.4195,-0.2026179 -5.93931,0.6557169 -8.70254,2.9643388 -1.5965,1.3338175 -2.45367,1.2729369 -4.56415,-0.3242204 -2.45747,-1.8597563 -4.14117,-2.5109488 -6.85305,-2.6505165 -3.98521,-0.205105 -6.76259,1.0665355 -10.92433,5.0018422 -6.05073,5.7215092 -10.64387,14.6792422 -12.44655,24.2738012 -0.22858,1.216607 -0.40622,2.76442 -0.39474,3.439583 l 0.0209,1.227535 0.39804,-1.124479 0.39804,-1.12448 h 1.63157 c 4.6563,-0.0029 9.03677,-1.365832 12.97726,-4.037806 5.76784,-3.911044 14.1188,-5.660946 22.25644,-4.663731 4.9816,0.610473 9.13101,2.092616 13.1532,4.698206 4.07437,2.639404 6.93658,3.586904 11.90877,3.942266 l 2.71928,0.194362 0.38872,1.12448 c 0.21379,0.618463 0.43924,1.124479 0.50102,1.124479 0.0617,0 0.0339,-0.843783 -0.062,-1.875102 z"
         style="display:inline;fill:#0a93e1;stroke-width:0.264583" />
      <path
         sodipodi:nodetypes="ssssssssssssscssssssssssscsssscccscsscsscssssssssscc"
         id="path261"
         d="m 185.15165,75.420099 c -4.84243,-1.681982 -8.95475,-3.851063 -12.97625,-6.8444 -10.15985,-7.562374 -16.83579,-19.14533 -18.39609,-31.917746 -0.45344,-3.711946 -0.17325,-11.162665 0.54848,-14.584125 4.06993,-19.2941309 18.70523,-33.487704 38.0999,-36.949909 4.06511,-0.725673 10.84302,-0.780124 14.91052,-0.119804 27.49187,4.463124 44.95361,31.113228 38.02737,58.037413 -0.88157,3.42691 -1.78713,5.740401 -3.75957,9.604693 -5.33792,10.457762 -15.21624,18.997348 -26.31549,22.74914 -3.16478,1.069763 -3.52374,0.981287 -1.18676,-0.292523 6.76016,-3.68472 11.99057,-9.11831 15.48207,-16.083439 0.68302,-1.362552 1.57594,-3.386614 1.98429,-4.497917 1.50107,-4.085246 2.61221,-10.039297 2.15461,-11.54557 l -0.24114,-0.79375 -0.0228,0.814334 c -0.035,1.251691 -1.72784,5.299049 -3.0448,7.279588 -1.26908,1.908519 -4.14462,5.119581 -4.98962,5.571807 -0.43495,0.232781 -0.71064,0.08901 -1.74263,-0.908897 -5.87922,-5.685022 -13.74359,-7.604945 -20.73383,-5.061743 -2.41803,0.879713 -3.06914,0.883708 -5.36292,0.03291 -3.98698,-1.478783 -8.8288,-1.464284 -13.07738,0.03916 -2.73105,0.966444 -4.65095,2.145718 -7.06151,4.337526 -1.08032,0.982266 -2.05397,1.785938 -2.16366,1.785938 -0.28244,0 -4.0599,-3.915489 -4.84981,-5.027083 -1.46172,-2.056871 -2.70188,-4.748874 -3.65665,-7.937501 -0.58545,-1.955112 -0.0281,4.092681 0.62182,6.746876 1.89622,7.744618 5.66674,14.432227 11.04903,19.597211 2.49878,2.397919 4.65037,3.948695 7.76108,5.5939 2.43189,1.286193 2.00369,1.437482 -1.05834,0.373909 z m -17.82096,-40.18325 0.5339,-1.653646 h 1.63206 c 4.65677,-0.0029 9.03708,-1.365726 12.97773,-4.037806 4.57706,-3.103615 11.17076,-4.958397 17.6193,-4.956281 6.67742,0.0026 12.70788,1.677485 17.64114,4.900745 4.10779,2.683933 7.19323,3.71819 11.96407,4.010501 l 2.74309,0.168064 0.39706,0.950092 c 0.21839,0.522526 0.48014,1.485847 0.58166,2.140691 l 0.18457,1.190625 0.19495,-1.069367 c 0.25032,-1.373134 -0.39135,-5.69976 -1.41322,-9.52873 -2.60459,-9.759712 -8.20738,-18.6296834 -14.70925,-23.2867205 -5.07886,-3.63778276 -10.45702,-3.55126401 -15.30829,0.2462477 -1.96146,1.53543 -2.54749,1.5534746 -4.25807,0.1311804 -2.77775,-2.3096273 -6.58918,-3.45389732 -9.68703,-2.9082206 -7.7079,1.3577093 -16.34802,11.878575 -20.08466,24.456522 -1.04756,3.526208 -1.84877,8.048811 -1.81049,10.219426 0.0169,0.956813 0.084,1.501537 0.14912,1.210495 0.0651,-0.291041 0.3587,-1.273307 0.65236,-2.182812 z"
         style="display:inline;fill:#d83833;stroke-width:0.264583" />
      <path
         sodipodi:nodetypes="ssssssssssssssssssssssssscsssssscssscsscs"
         id="path255"
         d="m 185.15165,75.420099 c -4.84243,-1.681982 -8.95475,-3.851063 -12.97625,-6.8444 -10.15985,-7.562374 -16.83579,-19.14533 -18.39609,-31.917746 -0.45344,-3.711946 -0.17325,-11.162665 0.54848,-14.584125 4.06993,-19.2941309 18.70523,-33.487704 38.0999,-36.949909 4.06511,-0.725673 10.84302,-0.780124 14.91052,-0.119804 27.49187,4.463124 44.95361,31.113228 38.02737,58.037413 -0.88157,3.42691 -1.78713,5.740401 -3.75957,9.604693 -5.33792,10.457762 -15.21624,18.997348 -26.31549,22.74914 -3.16478,1.069763 -3.52374,0.981287 -1.18676,-0.292523 9.75926,-5.319422 16.52963,-14.614737 19.09313,-26.213674 0.70821,-3.204448 0.98428,-11.20222 0.51641,-14.961711 -1.48801,-11.9575 -8.02002,-24.1222481 -16.03555,-29.8634419 -5.07886,-3.63778278 -10.45702,-3.55126403 -15.30829,0.2462477 -1.96146,1.53543 -2.54749,1.5534746 -4.25807,0.1311804 -2.77775,-2.3096273 -6.58918,-3.45389733 -9.68703,-2.9082207 -7.82886,1.3790348 -16.53503,12.1134985 -20.20015,24.9062345 -1.52942,5.338313 -1.79723,7.705911 -1.65608,14.641195 0.11118,5.462509 0.19836,6.416146 0.80214,8.774431 2.02983,7.928054 5.71908,14.454055 11.07864,19.597211 2.49877,2.397919 4.65037,3.948695 7.76107,5.5939 2.43189,1.286193 2.00369,1.437482 -1.05833,0.373909 z m -9.39271,-20.729257 c 0,-1.354932 0.98602,-4.846214 1.9704,-6.976772 2.87584,-6.224376 8.22262,-10.994998 14.79603,-13.201623 3.08994,-1.037247 3.07706,-1.043067 3.0788,1.385861 0.003,2.63353 0.37505,3.935174 1.43084,4.990967 1.67833,1.678332 4.35862,1.741938 6.06579,0.14396 1.24857,-1.168691 1.49772,-1.923071 1.49772,-4.534773 0,-1.952281 0.0789,-2.432976 0.42077,-2.564157 0.60516,-0.232224 5.13255,1.325484 7.17942,2.470151 6.64056,3.713612 11.34708,10.526342 12.39959,17.948539 l 0.18762,1.322917 -1.69318,-1.48381 c -4.63838,-4.06482 -9.16284,-5.724789 -14.89501,-5.464783 -2.40461,0.109061 -3.40804,0.293079 -5.52924,1.013936 l -2.59151,0.880665 -1.24494,-0.482309 c -7.53679,-2.919782 -15.49678,-1.465553 -21.38093,3.906097 l -1.69217,1.544796 z"
         style="display:inline;fill:#452278;stroke-width:0.264583" />
      <path
         sodipodi:nodetypes="ssssssssssssssssssssssscsssssscssscsscs"
         id="path253"
         d="m 185.15165,75.420099 c -4.84243,-1.681982 -8.95475,-3.851063 -12.97625,-6.8444 -10.15985,-7.562374 -16.83579,-19.14533 -18.39609,-31.917746 -0.45344,-3.711946 -0.17325,-11.162665 0.54848,-14.584125 4.06993,-19.2941309 18.70523,-33.487704 38.0999,-36.949909 4.06511,-0.725673 10.84302,-0.780124 14.91052,-0.119804 27.49187,4.463124 44.95361,31.113228 38.02737,58.037413 -0.88157,3.42691 -1.78713,5.740401 -3.75957,9.604693 -5.33792,10.457762 -15.21624,18.997348 -26.31549,22.74914 -3.16478,1.069763 -3.52374,0.981287 -1.18676,-0.292523 6.82472,-3.71991 11.99682,-9.120611 15.56398,-16.251926 5.64357,-11.28231 5.90016,-24.543226 0.72478,-37.453385 -2.90679,-7.251012 -7.63233,-13.6931667 -12.71477,-17.3335159 -5.07886,-3.63778278 -10.45702,-3.55126403 -15.30829,0.2462477 -1.96146,1.53543 -2.54749,1.5534746 -4.25807,0.1311804 -2.77775,-2.3096273 -6.58918,-3.45389733 -9.68703,-2.9082207 -6.42636,1.1319934 -13.76326,8.8102285 -18.06618,18.9066755 -7.57658,17.77791 -4.39906,37.026877 8.09073,49.012396 2.49877,2.397919 4.65037,3.948695 7.76107,5.5939 2.43189,1.286193 2.00369,1.437482 -1.05833,0.373909 z m -9.39271,-20.729257 c 0,-1.354932 0.98602,-4.846214 1.9704,-6.976772 2.87584,-6.224376 8.22262,-10.994998 14.79603,-13.201623 3.08994,-1.037247 3.07706,-1.043067 3.0788,1.385861 0.003,2.63353 0.37505,3.935174 1.43084,4.990967 1.67833,1.678332 4.35862,1.741938 6.06579,0.14396 1.24857,-1.168691 1.49772,-1.923071 1.49772,-4.534773 0,-1.952281 0.0789,-2.432976 0.42077,-2.564157 0.60516,-0.232224 5.13255,1.325484 7.17942,2.470151 6.64056,3.713612 11.34708,10.526342 12.39959,17.948539 l 0.18762,1.322917 -1.69318,-1.48381 c -4.63838,-4.06482 -9.16284,-5.724789 -14.89501,-5.464783 -2.40461,0.109061 -3.40804,0.293079 -5.52924,1.013936 l -2.59151,0.880665 -1.24494,-0.482309 c -7.53679,-2.919782 -15.49678,-1.465553 -21.38093,3.906097 l -1.69217,1.544796 z"
         style="display:inline;fill:#014187;stroke-width:0.264583" />
      <path
         sodipodi:nodetypes="ssscsssssscssscsscs"
         id="path249"
         d="m 175.75894,54.690842 c 0,-1.354932 0.98602,-4.846214 1.9704,-6.976772 2.87584,-6.224376 8.22262,-10.994998 14.79603,-13.201623 3.08994,-1.037247 3.07706,-1.043067 3.0788,1.385861 0.003,2.63353 0.37505,3.935174 1.43084,4.990967 1.67833,1.678332 4.35862,1.741938 6.06579,0.14396 1.24857,-1.168691 1.49772,-1.923071 1.49772,-4.534773 0,-1.952281 0.0789,-2.432976 0.42077,-2.564157 0.60516,-0.232224 5.13255,1.325484 7.17942,2.470151 6.64056,3.713612 11.34708,10.526342 12.39959,17.948539 l 0.18762,1.322917 -1.69318,-1.48381 c -4.63838,-4.06482 -9.16284,-5.724789 -14.89501,-5.464783 -2.40461,0.109061 -3.40804,0.293079 -5.52924,1.013936 l -2.59151,0.880665 -1.24494,-0.482309 c -7.53679,-2.919782 -15.49678,-1.465553 -21.38093,3.906097 l -1.69217,1.544796 z"
         style="display:inline;fill:#3c3c3c;stroke-width:0.264583" />
    </g>
  </g>
</svg>
