<?xml version="1.0" encoding="UTF-8" standalone="no"?>
<svg
   xmlns:dc="http://purl.org/dc/elements/1.1/"
   xmlns:cc="http://creativecommons.org/ns#"
   xmlns:rdf="http://www.w3.org/1999/02/22-rdf-syntax-ns#"
   xmlns:svg="http://www.w3.org/2000/svg"
   xmlns="http://www.w3.org/2000/svg"
   xmlns:sodipodi="http://sodipodi.sourceforge.net/DTD/sodipodi-0.dtd"
   xmlns:inkscape="http://www.inkscape.org/namespaces/inkscape"
   inkscape:version="1.0 (4035a4fb49, 2020-05-01)"
   sodipodi:docname="virus.svg"
   id="svg8"
   version="1.1"
   viewBox="0 0 94.664719 94.6841"
   height="94.684097mm"
   width="94.664719mm">
  <defs
     id="defs2">
    <clipPath
       id="clipPath26"
       clipPathUnits="userSpaceOnUse">
      <rect
         y="-30.994047"
         x="-380.24402"
         height="122.46429"
         width="686.40472"
         id="rect28"
         style="fill:#d62e80;stroke-width:0.264583" />
    </clipPath>
  </defs>
  <sodipodi:namedview
     inkscape:window-maximized="1"
     inkscape:window-y="-9"
     inkscape:window-x="-9"
     inkscape:window-height="1001"
     inkscape:window-width="1920"
     showguides="false"
     fit-margin-bottom="0"
     fit-margin-right="0"
     fit-margin-left="0"
     fit-margin-top="0"
     showgrid="false"
     inkscape:document-rotation="0"
     inkscape:current-layer="g243"
     inkscape:document-units="mm"
     inkscape:cy="269.71376"
     inkscape:cx="457.29673"
     inkscape:zoom="0.49497475"
     inkscape:pageshadow="2"
     inkscape:pageopacity="0.0"
     borderopacity="1.0"
     bordercolor="#666666"
     pagecolor="#ffffff"
     id="base" />
  <metadata
     id="metadata5">
    <rdf:RDF>
      <cc:Work
         rdf:about="">
        <dc:format>image/svg+xml</dc:format>
        <dc:type
           rdf:resource="http://purl.org/dc/dcmitype/StillImage" />
        <dc:title></dc:title>
      </cc:Work>
    </rdf:RDF>
  </metadata>
  <g
     style="display:inline"
     transform="translate(374.4424,18.608713)"
     id="layer1"
     inkscape:groupmode="layer"
     inkscape:label="Layer 1">
    <g
       style="display:inline"
       transform="translate(-274.26821,-2.4693879)"
       id="g243">
      <path
         sodipodi:nodetypes="ssssssssssss"
         id="path295"
         d="m -61.371321,77.78087 c -4.968585,-1.023065 -8.352897,-2.156328 -12.321197,-4.125833 -13.561246,-6.73063 -22.785178,-18.77785 -25.717767,-33.589543 -0.724165,-3.657441 -0.987795,-10.340657 -0.55327,-14.025086 0.914215,-7.751789 3.488532,-14.830346 7.664742,-21.0757563 7.868365,-11.7668676 20.09455,-19.2102847 34.307147,-20.8864727 3.939355,-0.464582 10.601061,-0.158777 14.561689,0.668443 26.763531,5.5899315 43.19638,31.986855 36.3771146,58.4345 C -10.487392,56.50157 -19.939209,67.9244 -32.468157,73.896363 c -3.935677,1.875949 -7.104036,2.910284 -11.880983,3.878606 -3.457602,0.700882 -4.360122,0.781315 -8.624227,0.768642 -4.159779,-0.01244 -5.222584,-0.108903 -8.397954,-0.762741 z"
         style="display:inline;fill:#fcecc1;stroke-width:0.264583" />
      <path
         sodipodi:nodetypes="ssssssssss"
         id="path293"
         d="m -58.00045,78.271355 c -2.824533,-0.294428 -6.813233,-1.161415 -9.762835,-2.12209 -7.161451,-2.332461 -15.476909,-7.757319 -20.288648,-13.235967 -7.68096,-8.74559 -11.697891,-18.725356 -12.077567,-30.00584 -0.21365,-6.347302 0.418384,-10.855484 2.334867,-16.654463 5.807711,-17.5732548 21.149576,-29.974884 39.802967,-32.174815 3.939355,-0.464582 10.601061,-0.158777 14.561689,0.668443 26.763531,5.5899315 43.19638,31.986855 36.3771146,58.4345 -4.3951266,17.046099 -18.4805646,30.558343 -35.7340456,34.279919 -4.785281,1.032193 -10.27819,1.324743 -15.213542,0.810313 z"
         style="display:inline;fill:#efdaaa;stroke-width:0.264583" />
      <path
         sodipodi:nodetypes="cssssscssssssccsssssccccssccccccssccsssssssssssccssssccssssssscccsssscscccsscc"
         id="path287"
         d="m -59.852534,77.869056 c -19.722201,-3.052974 -35.349632,-17.898057 -39.274832,-37.308605 -1.605064,-7.937156 -1.149874,-16.173265 1.321462,-23.910581 1.09728,-3.435403 4.365837,-9.9211608 6.531716,-12.9608529 2.216574,-3.11083857 7.13748,-8.1305136 10.111027,-10.3139611 6.562751,-4.818989 14.081178,-7.910539 21.972086,-9.034833 2.89732,-0.412803 9.812206,-0.411903 12.7,0.0026 4.926728,0.705564 9.262482,2.032132 13.943278,4.266115 3.859795,1.8421615 6.260334,3.3527207 9.524128,5.9931301 8.364697,6.7670363 14.1532248,16.3442389 16.5247118,27.3404279 0.5240603,2.429986 0.6005513,3.557297 0.610288,8.995833 0.00979,5.466292 -0.062283,6.580109 -0.5963974,9.216443 -4.0266944,19.874998 -19.6457104,34.771437 -39.5510044,37.721276 -3.494855,0.517922 -10.451359,0.514879 -13.816463,-0.0061 z m 9.952964,-19.095588 c 4.738662,-2.475521 4.738662,-9.011258 0,-11.486779 -4.825074,-2.520633 -10.491682,1.806681 -9.305687,7.106285 0.660083,2.949601 3.357483,5.119396 6.364182,5.119396 1.157526,0 1.869361,-0.178805 2.941505,-0.738902 z m 12.614356,-5.677244 -0.07773,-1.918229 h -1.852083 -1.852084 l -0.08043,1.557867 c -0.116337,2.253245 -0.09334,2.278592 2.068089,2.278592 h 1.87198 z m -27.726695,-0.07935 v -1.732995 l -1.521354,0.07935 -1.521355,0.07935 -0.08197,1.289288 c -0.120386,1.893358 -0.01773,2.018003 1.66116,2.018003 h 1.463516 z m 1.000681,-7.673129 c 3.044666,-1.269894 4.677701,-4.900665 3.626988,-8.06405 -1.23026,-3.703928 -5.608321,-5.50373 -9.060287,-3.724619 -1.287462,0.663549 -2.578894,2.024327 -3.094593,3.260778 -0.873998,2.095447 -0.289639,5.367867 1.259787,7.054956 1.532864,1.669098 5.076164,2.387177 7.268105,1.472935 z m 27.737569,-0.225292 c 3.697023,-1.721406 4.74554,-6.768624 2.058326,-9.908011 -4.522126,-5.283121 -13.0887,-0.770229 -11.218387,5.909839 0.417909,1.492647 2.137569,3.489431 3.562615,4.136734 1.556358,0.706967 3.906494,0.648811 5.597446,-0.138562 z m -14.76989,-5.780564 -0.07773,-1.918229 -1.695688,-0.07985 c -1.177581,-0.05548 -1.762469,0.0254 -1.914182,0.264583 -0.26117,0.411744 -0.301783,3.223736 -0.05019,3.475328 0.097,0.09702 0.995177,0.176398 1.995964,0.176398 h 1.819566 z m 1.085136,-7.862385 c 2.190724,-1.129533 3.528695,-3.273637 3.546502,-5.683329 0.04427,-5.987389 -7.126659,-8.891456 -11.15748,-4.518528 -3.388413,3.675988 -1.620626,9.482958 3.273108,10.751794 1.126754,0.292152 3.219132,0.02688 4.33787,-0.549937 z m -14.841353,-3.939725 c 0.23921,-0.151712 0.320066,-0.7366 0.264583,-1.914181 l -0.07985,-1.695688 -1.918229,-0.07774 -1.91823,-0.07774 v 1.841633 c 0,1.225735 0.110596,1.886241 0.33073,1.975061 0.546258,0.220425 2.951162,0.183251 3.320997,-0.05136 z m 27.150591,0.06599 c 0.325623,-0.124936 0.418518,-0.565415 0.418518,-1.984375 V 23.79362 h -1.984375 -1.984376 v 1.830044 c 0,1.216448 0.110887,1.874758 0.33073,1.963472 0.47834,0.193014 2.727986,0.203253 3.219503,0.01455 z"
         style="display:inline;fill:#eb9d99;stroke-width:0.264583" />
      <path
         sodipodi:nodetypes="ssssscsssssssssssssssccsssccssscsssssssssscccsssssssscssccssssccssscscss"
         id="path281"
         d="M -56.677533,78.007566 C -72.99251,76.717748 -87.537662,66.890382 -94.89509,52.186058 -102.70985,36.567677 -101.24382,18.027 -91.070564,3.8175781 c 12.93712,-18.0697451 36.763671,-24.6072291 57.147199,-15.6798961 13.781908,6.0360452 24.1198941,18.818463 27.1179145,33.530011 2.5280939,12.405545 -0.019579,25.223946 -7.1061005,35.751929 -9.498542,14.111658 -25.746288,21.933456 -42.765982,20.587944 z m 5.930238,-18.116021 c 2.871947,-0.852885 5.044811,-3.808175 5.044811,-6.861466 0,-3.053292 -2.172864,-6.008582 -5.044811,-6.861467 -1.731645,-0.514217 -2.440516,-0.518795 -4.098369,-0.02646 -4.179438,1.241161 -6.350159,5.978657 -4.489609,9.798341 1.033489,2.121694 2.168922,3.17418 4.169992,3.865404 1.731434,0.598064 2.633557,0.615553 4.417986,0.08565 z m 13.894622,-4.499108 c 0.30263,-0.30263 0.415766,-0.945515 0.415766,-2.362358 0,-2.509176 -0.246856,-2.778125 -2.549843,-2.778125 -2.616359,0 -2.741824,0.126947 -2.741824,2.774288 0,2.655491 0.103531,2.762118 2.693088,2.773918 1.26201,0.0058 1.885871,-0.110781 2.182813,-0.407723 z m -27.233194,-2.362358 v -2.38125 l -2.243958,-0.07784 c -2.6933,-0.09342 -2.915418,0.08903 -2.915418,2.39477 0,2.483406 0.145468,2.611729 2.858982,2.521797 l 2.300394,-0.07623 z m -0.06181,-6.899037 c 2.81559,-0.95938 4.78716,-3.796004 4.767422,-6.859297 -0.0127,-1.96678 -0.512525,-3.196802 -1.919394,-4.723051 -1.481243,-1.606999 -3.140393,-2.353918 -5.22949,-2.354262 -4.247621,0 -7.571158,3.672787 -7.136157,7.8876 0.1728,1.674389 0.727657,2.830909 2.001811,4.172452 2.030228,2.137675 4.75377,2.817681 7.515808,1.876558 z m 28.119522,-0.315066 c 2.589397,-1.322255 4.294558,-4.345305 4.009416,-7.10819 -0.630899,-6.112775 -7.807352,-8.699765 -12.226873,-4.407588 -3.654663,3.549385 -2.22459,10.049457 2.602813,11.830447 1.494843,0.551497 4.21722,0.398939 5.614644,-0.314669 z M -50.4811,41.678633 c 0.195395,-0.235426 0.279823,-1.179062 0.230822,-2.579687 l -0.07726,-2.208451 h -2.513542 -2.513542 l -0.07726,2.208451 c -0.049,1.400625 0.03543,2.344261 0.230822,2.579687 0.431324,0.519695 4.288632,0.519695 4.719956,0 z m 0.418147,-9.383236 c 1.49479,-0.681408 2.672186,-1.745086 3.510915,-3.171852 0.633783,-1.078124 0.722419,-1.504791 0.722419,-3.477842 0,-1.976755 -0.08803,-2.398712 -0.72734,-3.486256 -3.741235,-6.364261 -13.436204,-3.856937 -13.425276,3.472048 0.0045,2.962116 1.567815,5.404009 4.23074,6.608022 1.550432,0.700987 4.215898,0.727181 5.688542,0.05588 z M -64.08587,25.645703 v -2.513541 l -2.208451,-0.07726 c -1.400625,-0.049 -2.344261,0.03543 -2.579688,0.230823 -0.483843,0.401558 -0.519906,4.222141 -0.04434,4.697703 0.221377,0.221377 1.054021,0.302499 2.579688,0.251355 l 2.252795,-0.07554 z m 27.33146,2.328334 c 0.466751,-0.466752 0.422883,-4.292733 -0.05374,-4.688311 -0.235426,-0.195395 -1.179063,-0.279824 -2.579688,-0.230823 l -2.208451,0.07726 -0.07755,2.226839 c -0.04268,1.224756 -0.01667,2.385615 0.05784,2.579687 0.178964,0.466434 4.399836,0.4971 4.861587,0.03535 z"
         style="display:inline;fill:#f0c542;stroke-width:0.264583" />
      <path
         sodipodi:nodetypes="ssssscsssssssssssssssccsssccssscsssssssssscccsssssssscssccssssccssscscss"
         id="path277"
         d="M -56.677533,78.007566 C -72.99251,76.717748 -87.537662,66.890382 -94.89509,52.186058 -102.70985,36.567677 -101.24382,18.027 -91.070564,3.8175781 c 12.93712,-18.0697451 36.763671,-24.6072291 57.147199,-15.6798961 13.781908,6.0360452 24.1198941,18.818463 27.1179145,33.530011 2.5280939,12.405545 -0.019579,25.223946 -7.1061005,35.751929 -9.498542,14.111658 -25.746288,21.933456 -42.765982,20.587944 z m 5.930238,-18.116021 c 2.871947,-0.852885 5.044811,-3.808175 5.044811,-6.861466 0,-3.053292 -2.172864,-6.008582 -5.044811,-6.861467 -1.731645,-0.514217 -2.440516,-0.518795 -4.098369,-0.02646 -4.179438,1.241161 -6.350159,5.978657 -4.489609,9.798341 1.033489,2.121694 2.168922,3.17418 4.169992,3.865404 1.731434,0.598064 2.633557,0.615553 4.417986,0.08565 z m 13.894622,-4.499108 c 0.30263,-0.30263 0.415766,-0.945515 0.415766,-2.362358 0,-2.509176 -0.246856,-2.778125 -2.549843,-2.778125 -2.616359,0 -2.741824,0.126947 -2.741824,2.774288 0,2.655491 0.103531,2.762118 2.693088,2.773918 1.26201,0.0058 1.885871,-0.110781 2.182813,-0.407723 z m -27.233194,-2.362358 v -2.38125 l -2.243958,-0.07784 c -2.6933,-0.09342 -2.915418,0.08903 -2.915418,2.39477 0,2.483406 0.145468,2.611729 2.858982,2.521797 l 2.300394,-0.07623 z m -0.06181,-6.899037 c 2.81559,-0.95938 4.78716,-3.796004 4.767422,-6.859297 -0.0127,-1.96678 -0.512525,-3.196802 -1.919394,-4.723051 -1.481243,-1.606999 -3.140393,-2.353918 -5.22949,-2.354262 -4.247621,0 -7.571158,3.672787 -7.136157,7.8876 0.1728,1.674389 0.727657,2.830909 2.001811,4.172452 2.030228,2.137675 4.75377,2.817681 7.515808,1.876558 z m 28.119522,-0.315066 c 2.589397,-1.322255 4.294558,-4.345305 4.009416,-7.10819 -0.630899,-6.112775 -7.807352,-8.699765 -12.226873,-4.407588 -3.654663,3.549385 -2.22459,10.049457 2.602813,11.830447 1.494843,0.551497 4.21722,0.398939 5.614644,-0.314669 z M -50.4811,41.678633 c 0.195395,-0.235426 0.279823,-1.179062 0.230822,-2.579687 l -0.07726,-2.208451 h -2.513542 -2.513542 l -0.07726,2.208451 c -0.049,1.400625 0.03543,2.344261 0.230822,2.579687 0.431324,0.519695 4.288632,0.519695 4.719956,0 z m 0.418147,-9.383236 c 1.49479,-0.681408 2.672186,-1.745086 3.510915,-3.171852 0.633783,-1.078124 0.722419,-1.504791 0.722419,-3.477842 0,-1.976755 -0.08803,-2.398712 -0.72734,-3.486256 -3.741235,-6.364261 -13.436204,-3.856937 -13.425276,3.472048 0.0045,2.962116 1.567815,5.404009 4.23074,6.608022 1.550432,0.700987 4.215898,0.727181 5.688542,0.05588 z M -64.08587,25.645703 v -2.513541 l -2.208451,-0.07726 c -1.400625,-0.049 -2.344261,0.03543 -2.579688,0.230823 -0.483843,0.401558 -0.519906,4.222141 -0.04434,4.697703 0.221377,0.221377 1.054021,0.302499 2.579688,0.251355 l 2.252795,-0.07554 z m 27.33146,2.328334 c 0.466751,-0.466752 0.422883,-4.292733 -0.05374,-4.688311 -0.235426,-0.195395 -1.179063,-0.279824 -2.579688,-0.230823 l -2.208451,0.07726 -0.07755,2.226839 c -0.04268,1.224756 -0.01667,2.385615 0.05784,2.579687 0.178964,0.466434 4.399836,0.4971 4.861587,0.03535 z"
         style="display:inline;fill:#eb706f;stroke-width:0.264583" />
      <path
         sodipodi:nodetypes="csssssssscssssssss"
         id="path271"
         d="m -59.852534,77.519608 c -7.725807,-0.679159 -17.204929,-5.081825 -24.288778,-11.281092 -7.209684,-6.30944 -12.761172,-15.925377 -14.748696,-25.546818 -3.874192,-18.754566 4.115515,-38.1163515 20.085607,-48.6744173 6.811222,-4.5029967 13.86856,-6.9187747 22.457597,-7.6874427 13.151168,-1.176919 26.932203,3.919009 36.594417,13.531824 14.3432486,14.269905 17.9510807,35.989763 8.988082,54.110123 -6.127592,12.388083 -17.105023,21.258927 -30.63944,24.759656 -2.966112,0.767186 -3.38881,0.806873 -9.585246,0.900033 -3.565261,0.05361 -7.553855,0.0032 -8.863543,-0.111866 z m 10.35484,-13.266473 c 15.064847,-2.095315 24.88335,-16.676635 21.097347,-31.33135 -1.932358,-7.479691 -7.995232,-14.170157 -15.451403,-17.050808 -3.174365,-1.226397 -6.197812,-1.685899 -10.047658,-1.527096 -3.886042,0.160311 -6.422205,0.760121 -9.690974,2.291927 -11.065378,5.18541 -16.794322,17.430194 -13.685415,29.250561 0.598779,2.276633 2.738199,6.594025 4.261062,8.598958 5.47116,7.20307 14.624077,11.004709 23.517041,9.767808 z"
         style="display:inline;fill:#0a93e1;stroke-width:0.264583" />
      <path
         sodipodi:nodetypes="scssssssssssssssssssss"
         id="path261"
         d="m -58.132742,77.601139 c -0.363802,-0.06694 -1.733021,-0.297365 -3.042708,-0.512048 -14.385318,-2.358258 -27.467694,-12.358185 -33.898155,-25.911096 -7.074745,-14.910805 -5.712015,-32.280437 3.634529,-46.3260018 2.659962,-3.99729863 8.250741,-9.5880768 12.248039,-12.2480389 12.385967,-8.2421673 26.637088,-10.2662303 40.902046,-5.8092973 3.382646,1.056851 9.358525,4.0600839 12.424861,6.2442194 8.542206,6.08454357 14.984413,15.173378 17.8762036,25.2203216 1.2488598,4.338823 1.7135211,7.868603 1.7135211,13.016574 0,10.091076 -2.814426,18.935886 -8.6061027,27.045973 -5.820172,8.149987 -13.85332,14.03268 -23.462352,17.181566 -5.114978,1.676162 -7.608623,2.063221 -13.836757,2.147729 -2.910416,0.03948 -5.589323,0.01693 -5.953125,-0.0499 z m 8.635048,-13.348044 c 15.064847,-2.095315 24.88335,-16.676635 21.097347,-31.33135 -1.932358,-7.479691 -7.995232,-14.170157 -15.451403,-17.050808 -3.174365,-1.226397 -6.197812,-1.685899 -10.047658,-1.527096 -3.886042,0.160311 -6.422205,0.760121 -9.690974,2.291927 -11.065378,5.18541 -16.794322,17.430194 -13.685415,29.250561 0.598779,2.276633 2.738199,6.594025 4.261062,8.598958 5.47116,7.20307 14.624077,11.004709 23.517041,9.767808 z"
         style="display:inline;fill:#d83833;stroke-width:0.264583" />
      <path
         sodipodi:nodetypes="sssssssssssscccssssssssscccsssssscccsssssssssscsssssscssssssssscsssssscssscsssssssssscsssscsssssssssssssssscsssssscssssssssssscsscsssscssscssssssscccsssssscccscsssssssscccssss"
         id="path255"
         d="M -62.366076,76.931955 C -78.588633,73.514306 -91.916305,61.662586 -97.129153,46.01862 c -4.636767,-13.915072 -2.5899,-28.723828 5.690077,-41.1666268 2.659962,-3.99729863 8.250741,-9.5880768 12.248039,-12.2480389 12.385967,-8.2421673 26.637088,-10.2662303 40.902046,-5.8092973 3.382646,1.056851 9.358525,4.0600839 12.424861,6.2442194 8.542206,6.08454357 14.984413,15.173378 17.8762036,25.2203216 1.2488598,4.338823 1.7135211,7.868603 1.7135211,13.016574 0,6.597068 -0.9689042,11.662463 -3.3473233,17.499886 -5.1410664,12.61782 -15.4391794,22.29956 -28.2874264,26.594329 -3.033421,1.01399 -6.478667,1.869467 -7.528798,1.869467 -0.432885,0 -0.510249,-0.238998 -0.578009,-1.785938 l -0.07824,-1.785937 -2.116667,-0.132292 -2.116667,-0.132292 -0.07728,-2.051129 c -0.07265,-1.927807 -0.04082,-2.065205 0.529167,-2.285868 0.504798,-0.195421 4.476618,-1.007956 5.729208,-1.172051 0.421587,-0.05524 0.596239,0.214762 1.488546,2.300975 0.619496,1.44833 0.714508,1.544294 1.392397,1.406367 1.189566,-0.242068 3.26136,-1.250527 3.420374,-1.664891 0.08128,-0.211878 -0.163909,-1.103974 -0.544909,-1.98247 -0.380974,-0.878496 -0.686991,-1.73826 -0.680006,-1.910556 0.0069,-0.172323 1.272117,-1.130485 2.811384,-2.129261 l 2.798656,-1.815941 1.482143,1.482116 1.482117,1.482143 -1.383083,1.400466 c -0.760704,0.770282 -1.383083,1.579404 -1.383083,1.798082 0,0.434049 2.634086,3.157643 3.053874,3.157643 0.439976,0 9.381543,-9.107381 9.381543,-9.555533 0,-0.390154 -2.668508,-3.144467 -3.046518,-3.144467 -0.09226,0 -0.850688,0.651378 -1.685343,1.447536 l -1.517597,1.447535 -1.51003,-1.525958 -1.51003,-1.525931 0.996738,-1.345274 c 0.548217,-0.739881 1.353926,-1.952387 1.790488,-2.694438 0.436563,-0.742076 0.941335,-1.351571 1.121701,-1.354481 0.180367,-0.0029 1.112282,0.308742 2.070921,0.69252 2.037212,0.815552 2.148708,0.762344 3.007545,-1.435153 0.840264,-2.149977 0.7951,-2.256551 -1.305375,-3.080649 -1.227481,-0.481568 -1.852083,-0.870585 -1.852083,-1.153504 0,-0.234765 0.24847,-1.504156 0.552159,-2.820882 0.303689,-1.316725 0.603594,-2.66192 0.666485,-2.989342 0.10721,-0.558085 0.246407,-0.595312 2.225993,-0.595312 h 2.111613 v 1.83044 c 0,2.69502 -0.02487,2.667477 2.400247,2.667477 1.784721,0 2.117831,-0.07244 2.35294,-0.511784 0.166026,-0.310198 0.273897,-2.90785 0.273897,-6.595666 0,-7.130997 0.07734,-6.915467 -2.481871,-6.915467 -2.281794,0 -2.512537,0.234526 -2.603024,2.645833 l -0.07448,1.984375 -1.876902,0.07691 c -1.302491,0.05337 -1.954054,-0.02762 -2.128943,-0.264583 -0.295566,-0.400473 -1.232086,-4.753927 -1.263915,-5.875417 -0.02011,-0.70694 0.121841,-0.830156 1.697884,-1.474232 1.091962,-0.446246 1.753341,-0.876908 1.811655,-1.179671 0.151845,-0.788008 -1.276482,-3.850719 -1.795806,-3.850719 -0.249582,0 -1.204939,0.305223 -2.123017,0.678259 -0.918051,0.373063 -1.759003,0.581422 -1.868752,0.463021 -0.109749,-0.118375 -0.98634,-1.383348 -1.948021,-2.811039 l -1.748473,-2.595775 1.361043,-1.439121 c 0.748586,-0.791501 1.497092,-1.439095 1.66333,-1.439095 0.166264,0 0.888682,0.595312 1.605333,1.322916 0.71665,0.727604 1.430628,1.322917 1.5866,1.322917 0.353034,0 3.043608,-2.69957 3.043608,-3.053794 0,-0.142452 -2.131933,-2.388474 -4.737603,-4.991127 l -4.737603,-4.7321258 -1.480105,1.399831 c -0.81407,0.7698846 -1.480106,1.5871558 -1.480106,1.8161268 0,0.22897 0.622379,1.046533 1.383083,1.816814 l 1.383083,1.400466 -1.501087,1.501087 c -1.794854,1.794854 -1.18364,1.965378 -6.680068,-1.86354 -0.512075,-0.356711 -0.508477,-0.39153 0.229552,-2.224828 0.412353,-1.0243343 0.702363,-2.0045891 0.644446,-2.178341 -0.180816,-0.5424223 -3.680619,-1.9037565 -4.067916,-1.5823142 -0.185605,0.1540405 -0.668497,1.058889 -1.073044,2.0107805 -0.669476,1.5752237 -0.796476,1.7200297 -1.413775,1.6118677 -1.406049,-0.246327 -5.453989,-1.0432252 -5.771463,-1.1361998 -0.2286,-0.06694 -0.330729,-0.74422 -0.330729,-2.1935017 0,-2.4449088 -0.02982,-2.4178683 2.667477,-2.4178683 h 1.83044 v -2.220648 c 0,-1.7808575 -0.08289,-2.25245084 -0.418518,-2.38125001 -0.545967,-0.20952354 -12.37533,-0.20952354 -12.921298,0 -0.335624,0.12879917 -0.418518,0.60039251 -0.418518,2.38125001 v 2.220648 h 1.830441 c 2.697294,0 2.667476,-0.027041 2.667476,2.4178683 0,1.4492817 -0.102129,2.1265621 -0.330729,2.1935017 -0.319961,0.093715 -4.382321,0.8931278 -5.780802,1.1375758 -0.629391,0.110014 -0.750306,-0.02744 -1.429121,-1.6245944 -0.407829,-0.9596437 -0.886513,-1.8651008 -1.063678,-2.0121562 -0.413888,-0.3434821 -3.928428,1.1134196 -4.043892,1.6763206 -0.04426,0.2158736 0.231008,1.1326019 0.611717,2.037186 0.380735,0.904557 0.63111,1.803903 0.556419,1.998557 -0.07469,0.194654 -0.59063,0.585972 -1.146572,0.869579 -0.555916,0.283607 -1.659838,1.003353 -2.453164,1.599433 -0.793327,0.596106 -1.594088,1.083813 -1.779482,1.083813 -0.41566,0 -2.381885,-1.749743 -2.759842,-2.455969 -0.234977,-0.439023 -0.07284,-0.723767 1.072197,-1.883225 0.741971,-0.751284 1.349031,-1.553342 1.349031,-1.782312 0,-0.228971 -0.666035,-1.0462422 -1.480106,-1.8161268 l -1.480105,-1.399831 -4.737603,4.7321258 c -2.60567,2.602653 -4.737603,4.884843 -4.737603,5.071507 0,0.477732 2.055759,2.65385 2.700337,2.858426 0.408411,0.129619 0.858124,-0.149516 1.902143,-1.180544 0.751999,-0.742659 1.495108,-1.350301 1.651318,-1.350301 0.15621,0 0.905959,0.657621 1.666107,1.461346 l 1.382105,1.461373 -0.947315,1.250606 c -0.521017,0.687864 -1.311566,1.873198 -1.756807,2.634113 -0.445214,0.760889 -0.913871,1.447959 -1.041426,1.526804 -0.127556,0.07885 -1.006608,-0.166766 -1.953419,-0.545809 -0.946812,-0.379042 -1.918044,-0.649393 -2.158233,-0.600763 -0.500221,0.101204 -1.767284,2.995666 -1.652455,3.774837 0.05218,0.354145 0.604308,0.726202 1.795145,1.209649 0.945885,0.384016 1.755616,0.884158 1.799431,1.111462 0.04379,0.227277 -0.164571,1.369642 -0.463021,2.538571 -0.298476,1.168956 -0.54266,2.418345 -0.54266,2.776485 0,1.019836 -0.555149,1.278651 -2.555875,1.191551 l -1.80975,-0.07877 -0.132292,-2.060787 c -0.09194,-1.43211 -0.253365,-2.137119 -0.529167,-2.311056 -0.218281,-0.137636 -1.132522,-0.252095 -2.031629,-0.254317 -2.547568,-0.0064 -2.466288,-0.240453 -2.466288,7.105676 0,4.530276 0.0884,6.36659 0.3175,6.595693 0.191929,0.191928 1.122601,0.3175 2.35294,0.3175 2.375826,0 2.356644,0.0217 2.356644,-2.667477 v -1.83044 h 2.111613 c 1.978105,0 2.119181,0.03765 2.230914,0.595312 0.06562,0.327422 0.366369,1.726407 0.668338,3.108855 0.301969,1.382447 0.548216,2.651839 0.547211,2.820881 0,0.169043 -0.835263,0.634339 -1.853909,1.033992 -1.517809,0.595498 -1.852084,0.832538 -1.852084,1.313392 0,0.804809 1.24124,3.548247 1.681877,3.717343 0.197009,0.07559 1.045078,-0.166344 1.884601,-0.537634 0.83955,-0.37129 1.722676,-0.675058 1.962521,-0.675058 0.239844,0 0.671512,0.440161 0.959273,0.978138 0.287761,0.537978 1.088364,1.755299 1.779111,2.705153 l 1.255925,1.727015 -1.504633,1.520508 -1.504633,1.520507 -1.517597,-1.447535 c -0.834654,-0.796158 -1.619779,-1.447536 -1.744689,-1.447536 -0.3878,0 -2.987172,2.772543 -2.987172,3.186166 0,0.434684 8.974799,9.513834 9.404509,9.513834 0.413121,0 3.030908,-2.742221 3.030908,-3.175 0,-0.209126 -0.622379,-1.010443 -1.383083,-1.780725 l -1.383083,-1.400466 1.482117,-1.482143 1.482143,-1.482116 2.798657,1.815941 c 1.539266,0.998776 2.804398,1.956938 2.811383,2.129261 0.0069,0.172296 -0.30607,1.048279 -0.695643,1.946592 -0.490087,1.130062 -0.631904,1.754532 -0.460242,2.026656 0.306519,0.48596 3.183969,1.725268 3.749595,1.614937 0.227383,-0.04434 0.730145,-0.827035 1.117283,-1.739318 0.387112,-0.912257 0.817192,-1.77202 0.955728,-1.910556 0.159491,-0.159491 0.69768,-0.11774 1.46685,0.113744 0.668205,0.20111 1.915875,0.450692 2.772543,0.554673 2.470838,0.299852 2.517854,0.352451 2.428372,2.717482 l -0.07699,2.035413 -2.116667,0.132292 -2.116666,0.132292 -0.07824,1.785937 c -0.07681,1.753368 -0.09128,1.785409 -0.79375,1.757601 -0.393541,-0.01561 -1.251294,-0.141208 -1.906138,-0.279162 z"
         style="display:inline;fill:#452278;stroke-width:0.264583" />
      <path
         sodipodi:nodetypes="csssssssssssscssssssssssscsssssscssssssssssscccsscscccccccsssssssscssssssssscsssssssscccccccccccccccsssssssscssssssssscsssssscssscccccsssscscsssssssssssssssscsssssssscsscc"
         id="path253"
         d="M -62.366076,76.931955 C -78.588633,73.514306 -91.916305,61.662586 -97.129153,46.01862 c -4.636767,-13.915072 -2.5899,-28.723828 5.690077,-41.1666268 2.659962,-3.99729863 8.250741,-9.5880768 12.248039,-12.2480389 12.385967,-8.2421673 26.637088,-10.2662303 40.902046,-5.8092973 3.382646,1.056851 9.358525,4.0600839 12.424861,6.2442194 8.542206,6.08454357 14.984413,15.173378 17.8762036,25.2203216 1.2488598,4.338823 1.7135211,7.868603 1.7135211,13.016574 0,6.597068 -0.9689042,11.662463 -3.3473233,17.499886 -5.1410664,12.61782 -15.4391794,22.29956 -28.2874264,26.594329 -2.889224,0.965782 -6.470465,1.869467 -7.408598,1.869467 -0.290566,0 -0.379571,-0.401082 -0.379571,-1.710479 0,-2.069147 -0.231193,-2.258271 -2.760742,-2.258271 h -1.737175 v -1.992683 c 0,-1.36906 0.103505,-2.021232 0.330729,-2.083964 0.594439,-0.164095 5.080556,-0.999596 5.593054,-1.041691 0.377692,-0.03101 0.679265,0.378856 1.234255,1.677458 0.403965,0.945145 0.908261,1.828112 1.120669,1.962097 0.424339,0.267653 3.664532,-0.970889 4.187084,-1.600517 0.220239,-0.265378 0.121206,-0.783088 -0.397721,-2.079387 -0.828887,-2.070524 -0.851456,-2.427632 -0.167111,-2.644828 0.288131,-0.09147 1.426448,-0.813859 2.529602,-1.605333 1.10318,-0.791501 2.092298,-1.439069 2.198079,-1.439069 0.105754,0 0.774568,0.591159 1.486217,1.313683 l 1.293945,1.313682 -1.370039,1.448621 c -0.753507,0.796713 -1.370012,1.601099 -1.370012,1.787472 0,0.402378 2.905866,3.396959 3.296338,3.396959 0.440028,0 9.668246,-9.350005 9.668246,-9.795854 0,-0.562848 -2.68531,-3.16873 -3.265303,-3.16873 -0.258789,0 -1.108763,0.603594 -1.888781,1.341306 l -1.418246,1.341331 -1.093338,-0.987769 c -1.67169,-1.510268 -1.757495,-1.809062 -0.850424,-2.961375 0.425345,-0.540359 1.209437,-1.66706 1.742441,-2.503805 0.533003,-0.836745 1.123473,-1.521354 1.312201,-1.521354 0.188727,0 1.083945,0.301016 1.989402,0.668946 0.905457,0.367903 1.774216,0.589862 1.930585,0.493209 0.387641,-0.239553 1.806046,-3.410108 1.806046,-4.036986 0,-0.374359 -0.462571,-0.696568 -1.785937,-1.243991 -0.982266,-0.406321 -1.868118,-0.806662 -1.96858,-0.889662 -0.100436,-0.083 0.03363,-0.928555 0.297974,-1.879044 0.264319,-0.950516 0.566684,-2.354289 0.671936,-3.119517 l 0.191373,-1.391364 2.024221,0.07681 2.024222,0.07681 0.07892,1.976649 c 0.04667,1.169485 0.208756,2.059199 0.396875,2.178764 0.422592,0.268632 3.930915,0.260006 4.357397,-0.01085 0.259635,-0.164782 0.319352,-1.761225 0.264583,-7.073556 l -0.0707,-6.860593 h -2.38125 -2.38125 l -0.132292,2.116667 -0.132291,2.116667 h -1.956118 -1.956118 l -0.599651,-2.645834 c -0.329804,-1.455208 -0.681779,-2.851811 -0.782135,-3.103562 -0.14867,-0.372904 0.196215,-0.630317 1.861238,-1.389089 1.936247,-0.882359 2.035942,-0.969592 1.895792,-1.658938 -0.275034,-1.35292 -1.49098,-3.770286 -1.89648,-3.770286 -0.218572,0 -1.177714,0.312367 -2.131404,0.694161 -0.953664,0.381794 -1.779535,0.6486 -1.83523,0.592905 -0.05569,-0.05569 -0.889846,-1.280769 -1.853697,-2.722377 l -1.752441,-2.621122 1.25984,-1.279075 c 0.692917,-0.7035 1.387845,-1.279075 1.54432,-1.279075 0.156474,0 0.870849,0.595312 1.5875,1.322917 0.71665,0.727604 1.423114,1.322916 1.569879,1.322916 0.354859,0 3.324913,-2.949363 3.324913,-3.301762 0,-0.439764 -9.355244,-9.6628212 -9.801305,-9.6628212 -0.508926,0 -3.163279,2.6641955 -3.163279,3.1750002 0,0.209127 0.60706,0.994939 1.349031,1.746223 1.543897,1.563318 1.529953,1.736831 -0.270193,3.363146 l -1.065583,0.962686 -2.586328,-1.748367 c -1.422453,-0.961601 -2.629483,-1.862031 -2.682241,-2.000964 -0.05278,-0.138933 0.228151,-1.015206 0.624311,-1.947307 0.396134,-0.9321005 0.657834,-1.8574013 0.581528,-2.0562357 -0.153273,-0.399415 -3.340524,-1.7587648 -4.123796,-1.7587648 -0.363829,0 -0.695696,0.489929 -1.253993,1.8512102 -0.849312,2.0709463 -0.761921,2.0335873 -3.43871,1.4703423 -1.000125,-0.2104493 -2.264887,-0.4539718 -2.81059,-0.5411521 L -50.195241,9.4821486 V 7.3881567 5.2941913 l 2.182812,-0.076861 2.182813,-0.076835 v -2.38125 -2.38125002 h -7.011459 -7.011459 v 2.38125002 2.38125 l 2.182813,0.076835 2.182813,0.076861 v 2.0939654 2.0939919 l -0.992188,0.1585383 c -0.545703,0.08718 -1.810464,0.3307028 -2.81059,0.5411521 -2.72669,0.573749 -2.638504,0.611241 -3.45485,-1.4694691 -0.608726,-1.5515432 -0.826187,-1.8520834 -1.340061,-1.8520834 -0.9144,0 -4.102312,1.5078604 -4.102312,1.9403748 0,0.2062692 0.303292,1.060794 0.673973,1.8989677 0.370655,0.838173 0.638545,1.670209 0.595313,1.848961 -0.04326,0.178753 -1.24251,1.112123 -2.664963,2.074175 l -2.586329,1.74916 -1.065583,-0.962686 c -1.800146,-1.626315 -1.814089,-1.799828 -0.270193,-3.363146 0.741972,-0.751284 1.349032,-1.544902 1.349032,-1.76358 0,-0.5079998 -2.668932,-3.1576432 -3.180636,-3.1576432 -0.434393,0 -9.783949,9.2338262 -9.783949,9.6628212 0,0.352399 2.970054,3.301762 3.324914,3.301762 0.146764,0 0.853228,-0.595312 1.569878,-1.322916 0.716651,-0.727605 1.431026,-1.322917 1.5875,-1.322917 0.156475,0 0.851403,0.575575 1.544321,1.279075 l 1.25984,1.279075 -1.751357,2.623529 c -0.963269,1.442932 -1.850946,2.659486 -1.972628,2.70346 -0.121681,0.04397 -0.94316,-0.223917 -1.825545,-0.595313 -0.882359,-0.371395 -1.793055,-0.675243 -2.023719,-0.675243 -0.432488,0 -1.610307,2.329789 -1.893385,3.74523 -0.143827,0.719111 -0.0622,0.792904 1.831605,1.655948 l 1.982179,0.903288 -0.65278,2.867051 c -0.35904,1.576864 -0.698632,3.021092 -0.754645,3.209422 -0.07408,0.249026 -0.626083,0.321178 -2.023904,0.264584 l -1.922065,-0.07781 -0.132292,-2.116667 -0.132292,-2.116667 h -2.38125 -2.38125 l -0.0707,6.860726 c -0.05477,5.31233 0.005,6.908773 0.264584,7.073556 0.426482,0.270721 3.934804,0.279347 4.357396,0.01085 0.188119,-0.119566 0.350203,-1.00928 0.396875,-2.178765 l 0.07893,-1.976649 2.050521,-0.07728 c 1.983263,-0.07472 2.050573,-0.05736 2.052373,0.529167 0.0026,0.598779 0.866113,4.443571 1.182793,5.261636 0.126259,0.326179 -0.289481,0.619231 -1.833589,1.29249 -1.382131,0.602615 -1.99689,1.011714 -1.99689,1.328817 0,0.67527 1.073044,3.231541 1.590755,3.789654 0.432487,0.466195 0.503475,0.459396 2.066422,-0.198438 0.890191,-0.374703 1.793214,-0.681249 2.006732,-0.681249 0.3125,0 1.639438,1.790065 3.670406,4.951492 0.127874,0.199046 -0.165364,0.732737 -0.770837,1.402926 -1.534689,1.698731 -1.637956,1.706245 -3.245167,0.236273 -0.781183,-0.714454 -1.616843,-1.299024 -1.857005,-1.299024 -0.539565,0 -3.196723,2.64832 -3.196723,3.186086 0,0.434154 9.238986,9.778497 9.668246,9.778497 0.148617,0 0.963481,-0.70059 1.810809,-1.556861 1.797315,-1.816259 1.798929,-2.069095 0.02355,-3.684932 -0.65106,-0.592508 -1.18372,-1.178004 -1.18372,-1.301141 0,-0.123111 0.597694,-0.812562 1.328235,-1.532096 0.989992,-0.975122 1.42113,-1.242087 1.69299,-1.048385 1.716431,1.222851 4.411107,3.002915 4.696301,3.102292 0.27694,0.09652 0.218837,0.484637 -0.271727,1.815174 -1.066641,2.892875 -1.133766,2.679674 1.15824,3.679005 1.411182,0.615288 2.152703,0.811424 2.422287,0.640688 0.213678,-0.135307 0.713502,-1.019942 1.110748,-1.965827 0.557556,-1.327627 0.839814,-1.710426 1.237906,-1.678755 0.520753,0.04146 4.996841,0.872754 5.608876,1.041691 0.227224,0.06273 0.330729,0.714904 0.330729,2.083964 v 1.992683 h -1.737175 c -2.529549,0 -2.760742,0.189124 -2.760742,2.258272 0,1.927331 0.02836,1.910609 -2.38125,1.402979 z"
         style="display:inline;fill:#014187;stroke-width:0.264583" />
    </g>
  </g>
</svg>
