<?xml version="1.0" encoding="UTF-8" standalone="no"?>
<svg
   xmlns:dc="http://purl.org/dc/elements/1.1/"
   xmlns:cc="http://creativecommons.org/ns#"
   xmlns:rdf="http://www.w3.org/1999/02/22-rdf-syntax-ns#"
   xmlns:svg="http://www.w3.org/2000/svg"
   xmlns="http://www.w3.org/2000/svg"
   xmlns:sodipodi="http://sodipodi.sourceforge.net/DTD/sodipodi-0.dtd"
   xmlns:inkscape="http://www.inkscape.org/namespaces/inkscape"
   inkscape:version="1.0 (4035a4fb49, 2020-05-01)"
   sodipodi:docname="vomit.svg"
   id="svg8"
   version="1.1"
   viewBox="0 0 94.594559 94.658877"
   height="94.658875mm"
   width="94.594559mm">
  <defs
     id="defs2">
    <clipPath
       id="clipPath26"
       clipPathUnits="userSpaceOnUse">
      <rect
         y="-30.994047"
         x="-380.24402"
         height="122.46429"
         width="686.40472"
         id="rect28"
         style="fill:#d62e80;stroke-width:0.264583" />
    </clipPath>
  </defs>
  <sodipodi:namedview
     inkscape:window-maximized="1"
     inkscape:window-y="-9"
     inkscape:window-x="-9"
     inkscape:window-height="1001"
     inkscape:window-width="1920"
     showguides="false"
     fit-margin-bottom="0"
     fit-margin-right="0"
     fit-margin-left="0"
     fit-margin-top="0"
     showgrid="false"
     inkscape:document-rotation="0"
     inkscape:current-layer="g243"
     inkscape:document-units="mm"
     inkscape:cy="277.95305"
     inkscape:cx="463.5098"
     inkscape:zoom="0.49497475"
     inkscape:pageshadow="2"
     inkscape:pageopacity="0.0"
     borderopacity="1.0"
     bordercolor="#666666"
     pagecolor="#ffffff"
     id="base" />
  <metadata
     id="metadata5">
    <rdf:RDF>
      <cc:Work
         rdf:about="">
        <dc:format>image/svg+xml</dc:format>
        <dc:type
           rdf:resource="http://purl.org/dc/dcmitype/StillImage" />
        <dc:title></dc:title>
      </cc:Work>
    </rdf:RDF>
  </metadata>
  <g
     style="display:inline"
     transform="translate(249.64443,19.134853)"
     id="layer1"
     inkscape:groupmode="layer"
     inkscape:label="Layer 1">
    <g
       style="display:inline"
       transform="translate(-23.034858,-3.003927)"
       id="g243">
      <path
         sodipodi:nodetypes="scsccssssss"
         id="path295"
         d="m -184.60358,78.380177 c -2.3801,-0.250613 -6.92308,-1.251717 -9.47739,-2.088462 -14.79537,-4.846584 -26.53553,-17.040093 -30.82128,-32.011435 -1.39876,-4.886272 -1.62624,-6.709013 -1.63221,-13.078328 -0.005,-5.17652 0.0737,-6.344338 0.60196,-8.951859 3.26239,-16.1025685 13.92762,-28.9737805 29.1133,-35.135053 9.96967,-4.044977 22.55229,-4.32906 32.87151,-0.742157 7.48825,2.602865 14.95544,7.5839907 20.00341,13.34365244 16.39577,18.70728556 15.81622,46.67062156 -1.33162,64.25311056 -7.88724,8.087148 -16.59656,12.585224 -27.45539,14.179788 -2.56679,0.376926 -9.25044,0.50681 -11.87229,0.230743 z"
         style="display:inline;fill:#fcecc1;stroke-width:0.264583" />
      <path
         sodipodi:nodetypes="ssssssccsssssssssssscssscsssssssssssscsssssssssscsssssssssssssssscs"
         id="path293"
         d="m -184.07442,78.146075 c -0.3638,-0.063 -1.55442,-0.241353 -2.64583,-0.396319 -2.82149,-0.400659 -6.79576,-1.472909 -9.80277,-2.644775 -3.84564,-1.498706 -4.31407,-1.751357 -11.49619,-6.200987 -1.27003,-0.786844 -5.32449,-4.573561 -7.0259,-6.561958 -5.75406,-6.724623 -9.24146,-13.949177 -11.00863,-22.805708 -0.3711,-1.859835 -0.47636,-3.684799 -0.48072,-8.334375 -0.005,-5.17652 0.0737,-6.344338 0.60196,-8.951859 3.26239,-16.1025685 13.92762,-28.9737805 29.1133,-35.135053 9.96967,-4.044977 22.55229,-4.32906 32.87151,-0.742157 7.48825,2.602865 14.95544,7.5839907 20.00341,13.34365244 11.26269,12.85052156 14.84904,30.44152956 9.47842,46.49139356 -2.33293,6.971876 -5.84604,12.688199 -11.07439,18.019606 -2.20437,2.247821 -5.44649,5.074418 -5.82039,5.074418 -0.0835,0 -1.13818,0.640741 -2.34373,1.423881 -4.88396,3.172672 -10.43165,5.458196 -16.19645,6.67258 -2.63634,0.555361 -4.09338,0.68924 -8.35276,0.767451 -2.83766,0.05212 -5.45703,0.04321 -5.82084,-0.01984 z m -4.79972,-28.582382 0.31219,-2.540344 -0.80035,-0.818621 c -2.07872,-2.126165 -2.57852,-5.450575 -1.23294,-8.20084 0.40273,-0.823145 1.21512,-1.909974 1.8053,-2.415143 1.84632,-1.580383 2.73407,-1.741276 9.5913,-1.738365 5.84068,0.0026 6.16183,0.02931 7.43289,0.621188 1.72071,0.801291 2.9653,2.065708 3.77571,3.835877 0.55308,1.208087 0.63188,1.70225 0.52765,3.308905 -0.13498,2.08071 -0.5744,3.134122 -1.93602,4.641268 -0.82684,0.915221 -0.88233,1.078363 -0.64649,1.900688 0.14189,0.494744 0.25798,1.584933 0.25798,2.42263 0,1.114161 0.0975,1.523101 0.36293,1.523101 0.66654,0 4.34955,-2.595801 5.94097,-4.187217 3.42393,-3.423946 5.62957,-7.742978 6.39791,-12.528285 0.20689,-1.288495 0.27305,-4.375203 0.19751,-9.213665 -0.13029,-8.34435 -0.26295,-9.108996 -2.31813,-13.361458 -2.21227,-4.5775038 -5.71211,-8.1304082 -10.18431,-10.338753 -3.50825,-1.73235943 -5.92245,-2.29372589 -9.92188,-2.30708735 -3.51357,-0.0116417 -5.51668,0.35533542 -8.45513,1.54932065 -5.35647,2.1765419 -10.15229,6.9448363 -12.38528,12.3142377 -1.51133,3.634105 -1.70192,5.347758 -1.59147,14.309804 0.0978,7.937871 0.10645,8.043545 0.83742,10.269353 1.31541,4.005448 3.48326,7.381504 6.48284,10.095971 1.35786,1.228804 4.59761,3.397779 5.07517,3.397779 0.0891,0 0.30253,-1.143159 0.47423,-2.540344 z m -4.71889,-19.671956 c -0.58182,-1.157182 -0.997,-2.262558 -0.92262,-2.456392 0.0744,-0.193834 1.39875,-0.98081 2.94304,-1.748843 l 2.80781,-1.396418 -0.82981,-0.856139 c -0.4564,-0.470879 -0.82981,-1.092332 -0.82981,-1.380992 0,-0.605023 2.86309,-3.551 3.45108,-3.551 0.55207,0 7.13226,6.654139 7.13226,7.212436 0,0.33237 -1.59769,1.257644 -5.81854,3.369734 -3.20019,1.601364 -6.05636,2.91158 -6.34705,2.91158 -0.3953,0 -0.79514,-0.530304 -1.58636,-2.103966 z m 20.56497,-0.821796 c -4.98512,-2.50997 -5.75469,-2.978706 -5.75469,-3.505121 0,-0.784913 6.27623,-7.062867 7.06092,-7.062867 0.62723,0 3.52241,2.931954 3.52241,3.567139 0,0.237305 -0.38022,0.778722 -0.84494,1.203167 -0.46472,0.424471 -0.75291,0.864235 -0.64041,0.977291 0.11249,0.11303 1.35592,0.800841 2.76317,1.528445 1.90082,0.982795 2.57958,1.469866 2.64008,1.89447 0.0448,0.314351 -0.34366,1.415679 -0.86323,2.447395 -0.75569,1.500611 -1.06307,1.873012 -1.53664,1.861688 -0.32559,-0.0079 -3.18159,-1.318022 -6.34667,-2.911607 z"
         style="display:inline;fill:#efdaaa;stroke-width:0.264583" />
      <path
         sodipodi:nodetypes="sssssssssscsscsscsssscssssssssscccssssssscssscsssscsssssssssss"
         id="path287"
         d="m -183.67754,77.879984 c -3.68626,-0.511308 -5.10795,-0.769303 -7.40598,-1.343951 -4.59517,-1.149112 -9.43227,-3.265858 -14.02527,-6.137514 -1.16417,-0.727868 -2.58588,-1.599776 -3.15935,-1.93757 -1.56222,-0.920247 -6.98864,-6.390746 -8.86488,-8.936911 -10.71544,-14.5415 -12.45696,-32.942133 -4.64628,-49.091876 5.39273,-11.15028307 15.57668,-20.0756315 27.43263,-24.042291 13.26508,-4.438121 27.76268,-2.7559 39.81301,4.6197306 8.37645,5.1269371 15.26281,13.3116109 19.01302,22.5975604 1.27234,3.150446 2.65607,8.598508 3.05138,12.013962 0.39576,3.419475 0.2004,10.695358 -0.37023,13.786458 -1.7091,9.258618 -6.21863,18.03617 -12.64356,24.610008 -2.26621,2.318755 -5.05112,4.678918 -6.02689,5.107701 -0.3752,0.164889 -1.57515,0.87929 -2.66656,1.587553 -4.54104,2.946956 -10.70149,5.379085 -16.53646,6.528621 -2.79369,0.550359 -10.76844,0.943133 -12.96458,0.638519 z m -4.88832,-26.768135 c 0.004,-0.836744 0.12586,-2.039117 0.27178,-2.671947 0.25569,-1.108869 0.2304,-1.189223 -0.69774,-2.216574 -1.94301,-2.150665 -2.62245,-5.336063 -1.63174,-7.649977 0.62073,-1.449732 2.28719,-3.146002 3.77102,-3.838469 1.26244,-0.589122 1.59504,-0.617405 7.27604,-0.618464 3.29325,0 6.39345,0.121206 6.93863,0.2726 1.39904,0.388541 3.10327,1.775116 4.03591,3.283612 0.71682,1.159431 0.79942,1.513866 0.79942,3.430455 0,2.454646 -0.46038,3.656119 -1.98525,5.180992 -0.76008,0.760068 -0.90899,1.071721 -0.76275,1.596284 0.0999,0.358484 0.19358,1.507966 0.20808,2.55442 0.0145,1.046427 0.1454,1.976173 0.29087,2.066078 0.42115,0.260271 3.29826,-1.404594 5.22768,-3.025061 3.4611,-2.906871 5.9891,-6.764575 7.3804,-11.262386 l 0.73658,-2.38125 v -8.466667 -8.466667 l -0.72157,-2.327433 c -3.99051,-12.8713448 -16.73072,-19.6572723 -29.12371,-15.5123627 -7.05948,2.3610623 -12.13376,7.5920865 -14.61034,15.0616707 -0.73735,2.223929 -0.74682,2.335795 -0.85056,10.054167 -0.11527,8.575728 0.0313,10.108777 1.30164,13.610828 1.86825,5.150512 5.79498,9.666552 10.68001,12.282805 0.57993,0.310595 1.14548,0.564701 1.25677,0.564701 0.1113,0 0.20527,-0.68461 0.20883,-1.521355 z m -4.84899,-21.381085 c -0.54439,-1.10019 -0.91847,-2.115767 -0.83129,-2.256816 0.0872,-0.14105 1.36968,-0.861907 2.85001,-1.60192 1.48033,-0.739987 2.73712,-1.38729 2.79286,-1.43846 0.0558,-0.05114 -0.27167,-0.517869 -0.7276,-1.037141 -0.45593,-0.519271 -0.82896,-1.160859 -0.82896,-1.425707 0,-0.540279 2.68476,-3.204183 3.22928,-3.204183 0.58893,0 6.91885,6.517243 6.75206,6.951874 -0.16175,0.421534 -11.18267,6.020197 -11.84155,6.015567 -0.23933,-0.0026 -0.80991,-0.821161 -1.39481,-2.003214 z m 20.51908,-0.850873 c -3.62662,-1.826446 -5.6224,-2.974843 -5.6224,-3.235272 0,-0.44249 6.32415,-6.878082 6.75898,-6.878082 0.35174,0 3.29519,2.97598 3.29519,3.331607 0,0.150468 -0.35719,0.615764 -0.79375,1.034018 -0.43656,0.418253 -0.79375,0.917495 -0.79375,1.109424 0,0.191929 1.25016,0.970703 2.77813,1.730613 2.16935,1.078892 2.77649,1.498865 2.77068,1.916642 -0.013,0.935725 -1.66085,3.704511 -2.24152,3.766291 -0.29104,0.03098 -3.05924,-1.217877 -6.15156,-2.775241 z"
         style="display:inline;fill:#eb9d99;stroke-width:0.264583" />
      <path
         sodipodi:nodetypes="cssssssssscssssccssssssccsscsssssssssscssssssssssssssssssssscs"
         id="path281"
         d="m -183.67754,77.879984 c -3.68626,-0.511308 -5.10795,-0.769303 -7.40598,-1.343951 -3.11999,-0.78023 -6.29457,-1.972125 -9.39859,-3.528748 -2.17239,-1.089449 -5.81174,-3.305678 -6.08189,-3.703691 -0.0728,-0.107183 -0.37042,-0.271383 -0.66146,-0.36486 -0.87737,-0.281755 -5.12522,-4.112287 -7.3319,-6.611567 -16.717,-18.933663 -15.571,-47.545335 2.60337,-64.9968283 8.08165,-7.7602297 17.64037,-12.0361077 29.10661,-13.0202257 8.34962,-0.716624 16.68365,0.969513 24.69668,4.996577 13.70106,6.8857022 23.00082,19.7862036 25.29928,35.094863 0.53218,3.54457 0.52363,10.101977 -0.018,13.730394 -1.45556,9.752224 -6.16576,19.113844 -13.13993,26.115856 -1.79376,1.800913 -5.27332,4.789567 -5.5763,4.789567 -0.0708,0 -1.12468,0.666671 -2.34201,1.481482 -4.56132,3.053053 -10.75963,5.535507 -16.78538,6.722613 -2.79368,0.550359 -10.76844,0.943133 -12.96458,0.638519 z m -4.89479,-26.525565 c 0,-0.848862 0.13544,-2.217816 0.30099,-3.042126 0.28965,-1.442297 0.27678,-1.517835 -0.34162,-2.004245 -0.90011,-0.708025 -1.99575,-2.837921 -2.21134,-4.298765 -0.40046,-2.713514 1.33339,-5.782575 3.95704,-7.004288 1.28495,-0.598329 1.58311,-0.622962 7.56954,-0.625449 6.16959,-0.0026 6.24559,0.0042 7.60056,0.67945 2.34008,1.166098 3.74621,3.375263 3.75652,5.901849 0.008,2.030386 -0.4431,3.275595 -1.73682,4.791207 -1.03585,1.213538 -1.11019,1.396948 -0.88474,2.183025 0.13536,0.47199 0.24794,1.632876 0.25017,2.579714 0.005,2.28981 0.19478,2.566617 1.3499,1.972839 5.88234,-3.023738 10.28133,-8.599858 11.94781,-15.144883 0.53945,-2.118677 0.58673,-2.922587 0.58673,-9.977252 0,-7.054665 -0.0473,-7.858575 -0.58673,-9.977252 -1.15791,-4.547659 -3.26192,-8.1491936 -6.65394,-11.3899161 -2.56473,-2.4503063 -5.43588,-4.1752573 -8.76449,-5.26560524 -2.16384,-0.70876584 -3.01048,-0.84074001 -6.08542,-0.94855772 -3.02723,-0.10612438 -3.93497,-0.0388408 -5.95312,0.44127209 -8.13914,1.93630027 -14.63501,8.18033467 -17.08901,16.42647097 -0.53628,1.802104 -0.60004,2.679991 -0.70124,9.655255 -0.0998,6.879378 -0.0573,7.936415 0.41134,10.220854 1.33912,6.52817 5.65516,12.375594 11.5228,15.611237 0.747,0.411903 1.44749,0.751099 1.55663,0.753745 0.10914,0.0026 0.19844,-0.689716 0.19844,-1.538579 z m -3.90498,-20.218611 c -0.3953,-0.492205 -1.65127,-3.04972 -1.65127,-3.362431 0,-0.149146 1.30968,-0.928 2.91041,-1.730799 1.60073,-0.802798 2.91042,-1.573556 2.91042,-1.712806 0,-0.139224 -0.35719,-0.659977 -0.79375,-1.157182 -0.43656,-0.497231 -0.79375,-1.080373 -0.79375,-1.295929 0,-0.470959 2.47789,-2.845541 2.96936,-2.845541 0.43855,0 6.55564,6.11296 6.55564,6.551216 0,0.335729 -10.81988,5.884201 -11.47457,5.884201 -0.20179,0 -0.48641,-0.148828 -0.63249,-0.330729 z m 19.71383,-2.462769 c -3.01956,-1.520878 -5.4901,-2.911713 -5.4901,-3.090756 0,-0.395605 6.09545,-6.551163 6.48719,-6.551163 0.35709,0 3.03781,2.707084 3.03781,3.067685 0,0.150098 -0.35719,0.615103 -0.79375,1.033357 -0.43656,0.418253 -0.79375,0.915696 -0.79375,1.105429 0,0.189733 1.19577,0.945012 2.65726,1.678437 1.4615,0.733399 2.73,1.523021 2.8189,1.75469 0.24442,0.636932 -1.40104,3.798888 -1.96796,3.78169 -0.25602,-0.0077 -2.93604,-1.258491 -5.9556,-2.779369 z"
         style="display:inline;fill:#f0c542;stroke-width:0.264583" />
      <path
         sodipodi:nodetypes="ssssssscccssssscsssssssssssssssssscccsssssccscscssssssssssssssssssssscs"
         id="path277"
         d="m -209.67748,67.089931 c -13.22613,-11.008095 -19.30376,-28.874588 -15.62809,-45.942144 3.02925,-14.0659913 12.73975,-26.2966206 25.75303,-32.436647 17.3405,-8.181737 37.4144,-5.170038 51.94909,7.7939368 6.31868,5.6358103 11.61195,14.4667822 13.7872,23.0016842 1.40475,5.511695 1.78572,13.005144 0.94691,18.625186 -1.70439,11.419416 -7.88126,22.236985 -16.8385,29.489294 l -1.74905,1.416129 h -2.39687 -2.39688 l -0.42521,-1.280186 c -0.42051,-1.266031 -1.32341,-2.345002 -2.44419,-2.920815 -0.36706,-0.188595 -2.39916,-0.296915 -5.56948,-0.296915 -3.52955,0 -5.08456,-0.093 -5.30906,-0.3175 -0.22607,-0.22606 -0.3175,-1.862641 -0.3175,-5.683171 v -5.365671 l 1.12448,-0.569409 c 6.05796,-3.067659 10.48543,-8.616289 12.17728,-15.260956 0.53945,-2.118677 0.58673,-2.922587 0.58673,-9.977252 0,-7.054665 -0.0473,-7.858575 -0.58673,-9.977252 -1.15791,-4.547659 -3.26192,-8.1491936 -6.65394,-11.3899161 -2.56473,-2.4503063 -5.43588,-4.1752573 -8.76449,-5.26560524 -2.16384,-0.70876584 -3.01048,-0.84074001 -6.08542,-0.94855772 -3.02723,-0.10612438 -3.93497,-0.0388408 -5.95312,0.44127209 -8.13914,1.93630027 -14.63501,8.18033467 -17.08901,16.42647097 -0.53628,1.802104 -0.60004,2.679991 -0.70124,9.655255 -0.0998,6.879378 -0.0573,7.936415 0.41134,10.220854 0.57447,2.800509 1.9973,6.115817 3.68914,8.595995 1.84422,2.703565 5.34024,5.767388 8.26581,7.243948 0.65484,0.330491 1.2781,0.733742 1.38501,0.896091 0.34585,0.525198 0.24008,10.602806 -0.11501,10.957904 -0.22462,0.224631 -1.78518,0.3175 -5.33457,0.3175 -4.8283,0 -5.05812,0.02408 -6.10835,0.639524 -1.09262,0.640318 -1.36702,1.013989 -2.10485,2.866205 l -0.39523,0.992187 h -2.38471 -2.3847 z m 21.06379,-20.782465 c -0.89946,-0.707522 -1.99508,-2.837789 -2.21061,-4.298183 -0.40046,-2.713514 1.33339,-5.782575 3.95704,-7.004288 1.28495,-0.598329 1.58311,-0.622962 7.56954,-0.625449 6.16959,-0.0026 6.24559,0.0042 7.60056,0.67945 2.34008,1.166098 3.74621,3.375263 3.75652,5.901849 0.008,2.041181 -0.47009,3.360235 -1.71909,4.739799 l -1.09347,1.207796 -0.99218,-1.49479 c -1.18487,-1.78509 -3.47825,-3.419951 -5.46658,-3.896968 -3.7225,-0.892995 -8.04559,0.908076 -9.94042,4.141364 -0.37207,0.634868 -0.70865,1.154324 -0.74795,1.154324 -0.0393,0 -0.36032,-0.227198 -0.71336,-0.504904 z m -3.86362,-15.171658 c -0.3953,-0.492205 -1.65127,-3.04972 -1.65127,-3.362431 0,-0.149146 1.30968,-0.928 2.91041,-1.730799 1.60073,-0.802798 2.91042,-1.573556 2.91042,-1.712806 0,-0.139224 -0.35719,-0.659977 -0.79375,-1.157182 -0.43656,-0.497231 -0.79375,-1.080373 -0.79375,-1.295929 0,-0.470959 2.47789,-2.845541 2.96936,-2.845541 0.43855,0 6.55564,6.11296 6.55564,6.551216 0,0.335729 -10.81988,5.884201 -11.47457,5.884201 -0.20179,0 -0.48641,-0.148828 -0.63249,-0.330729 z m 19.71383,-2.462769 c -3.01956,-1.520878 -5.4901,-2.911713 -5.4901,-3.090756 0,-0.395605 6.09545,-6.551163 6.48719,-6.551163 0.35709,0 3.03781,2.707084 3.03781,3.067685 0,0.150098 -0.35719,0.615103 -0.79375,1.033357 -0.43656,0.418253 -0.79375,0.915696 -0.79375,1.105429 0,0.189733 1.19577,0.945012 2.65726,1.678437 1.4615,0.733399 2.73,1.523021 2.8189,1.75469 0.24442,0.636932 -1.40104,3.798888 -1.96796,3.78169 -0.25602,-0.0077 -2.93604,-1.258491 -5.9556,-2.779369 z"
         style="display:inline;fill:#eb706f;stroke-width:0.264583" />
      <path
         sodipodi:nodetypes="cssssssscsccssccscsscssscscccssssccsssssssssssssssssssssssscssssssssss"
         id="path271"
         d="m -207.49004,68.663805 c -1.19199,-0.529881 -4.89832,-3.85617 -7.03612,-6.314599 -6.13775,-7.058369 -9.89411,-15.101358 -11.39583,-24.400378 -0.56792,-3.516709 -0.42721,-11.309747 0.27231,-15.08125 3.47794,-18.7516292 17.55154,-33.393671 36.09473,-37.552551 11.66231,-2.615644 24.10299,-0.598672 34.40871,5.5786341 11.30531,6.7764555 19.24682,18.1337481 21.92575,31.3564329 0.52681,2.600272 0.60754,3.789759 0.60754,8.951859 0,5.17488 -0.08,6.348334 -0.61222,8.976228 -1.94349,9.597073 -6.45535,17.866757 -13.44544,24.643848 -4.15775,4.031059 -4.2388,4.077732 -7.08522,4.080616 l -2.40504,0.0026 -0.36326,-1.148185 c -0.45373,-1.434148 -1.83036,-2.839165 -3.13747,-3.202147 -0.54846,-0.15232 -3.09781,-0.277601 -5.66524,-0.278394 -4.01168,0 -4.69063,-0.06032 -4.82864,-0.42 -0.0883,-0.230399 -0.1606,-2.67671 -0.1606,-5.436473 v -5.017744 l 0.82676,-0.450717 c 7.06155,-3.849635 11.46473,-9.571885 12.82134,-16.662242 0.5219,-2.727748 0.52231,-15.123583 5.3e-4,-17.830297 -2.9201,-15.1496187 -19.36091,-23.3767317 -32.96328,-16.4951043 -2.50851,1.2691004 -4.31725,2.6494052 -6.49392,4.9556988 -3.47488,3.6818095 -5.61949,8.2910895 -6.19493,13.3143095 -0.34894,3.045989 -0.34971,11.21029 -0.001,14.25112 0.86501,7.550626 5.48773,14.34801 12.18546,17.917875 l 1.57358,0.838702 -0.0714,5.450444 -0.0714,5.450443 -5.15937,0.133323 c -4.20914,0.10877 -5.31345,0.217435 -5.99591,0.590021 -1.04854,0.572453 -1.81908,1.539822 -2.22945,2.798921 -0.17489,0.536602 -0.44956,1.063123 -0.61038,1.170041 -0.49194,0.327051 -3.94736,0.20365 -4.7903,-0.17108 z m 18.50426,-23.240497 c -2.89909,-3.438155 -1.4649,-8.907966 2.72801,-10.404264 1.3319,-0.475324 12.09337,-0.519218 13.66203,-0.05575 1.5638,0.462041 3.66378,2.625566 4.11338,4.237831 0.51493,1.84658 0.26171,3.902736 -0.66389,5.390753 -1.00787,1.620308 -1.62077,2.011733 -2.02682,1.294448 -0.16476,-0.291042 -0.87606,-1.139455 -1.58068,-1.885368 -3.95409,-4.185868 -10.7686,-3.711205 -14.14254,0.98507 -0.51256,0.713449 -1.02924,1.297173 -1.14818,1.297173 -0.11893,0 -0.54252,-0.386954 -0.94131,-0.859896 z m -3.23691,-14.299513 c -0.38802,-0.483737 -1.64131,-3.042099 -1.64131,-3.350418 0,-0.149146 1.30969,-0.928 2.91042,-1.730799 1.60073,-0.802798 2.91041,-1.55694 2.91041,-1.675871 0,-0.118956 -0.30859,-0.504904 -0.68575,-0.857699 -1.30495,-1.220603 -1.301,-1.44616 0.0507,-2.891261 0.68014,-0.727128 1.43062,-1.322044 1.66774,-1.322044 0.4578,0 6.37563,5.777733 6.37563,6.22472 0,0.144807 -2.54975,1.536515 -5.66611,3.092688 -4.22276,2.108677 -5.73122,2.748227 -5.92175,2.510684 z m 20.18682,-2.209297 c -2.7649,-1.388136 -5.3102,-2.7042 -5.65622,-2.924598 l -0.62914,-0.400712 3.13854,-3.146742 c 1.7262,-1.730719 3.26394,-3.146743 3.41721,-3.146743 0.33973,0 2.77231,2.434617 2.77231,2.774606 0,0.133615 -0.37293,0.627671 -0.82874,1.097968 -0.5029,0.518848 -0.76752,1.014624 -0.67301,1.260899 0.0857,0.223229 1.26227,0.959035 2.61468,1.635125 1.35243,0.676089 2.60366,1.345909 2.78052,1.488466 0.2444,0.196982 0.10073,0.697706 -0.59864,2.086478 -0.50612,1.00502 -1.00801,1.820968 -1.11532,1.813216 -0.10731,-0.0077 -2.4573,-1.149826 -5.22219,-2.537963 z"
         style="display:inline;fill:#0a93e1;stroke-width:0.264583" />
      <path
         sodipodi:nodetypes="cssssssssssssssssssssssssccccssccccsssssssssssscsscsssscsscsssssscs"
         id="path261"
         d="m -206.96088,68.588055 c -1.22605,-0.309933 -5.86655,-4.569301 -8.59063,-7.88506 -12.1526,-14.792245 -13.91528,-35.75087 -4.42631,-52.629832 2.78072,-4.9463326 7.2824,-10.153121 11.82632,-13.6787204 9.21553,-7.1502856 20.91138,-10.7181916 32.07251,-9.7839746 17.01132,1.423909 31.34088,11.064849 38.65948,26.010209 2.89659,5.915105 4.36605,11.917072 4.59335,18.761234 0.28882,8.696616 -1.0719,15.103475 -4.80727,22.63484 -2.68673,5.417053 -6.35135,10.228686 -10.68698,14.031912 -2.70618,2.373842 -3.43689,2.724124 -5.6829,2.724124 -1.8015,0 -2.09995,-0.171238 -2.38559,-1.368663 -0.24752,-1.037669 -1.45037,-2.341854 -2.67144,-2.8965 -0.90976,-0.413252 -1.78545,-0.486595 -5.86962,-0.491516 -4.1297,-0.005 -4.82278,-0.06429 -4.96094,-0.424339 -0.0883,-0.230187 -0.1606,-2.543254 -0.1606,-5.140166 0,-5.404697 -0.26693,-4.803378 2.9352,-6.612149 3.35432,-1.894735 6.87685,-5.78485 8.74473,-9.657292 2.06088,-4.272571 2.15731,-4.858703 2.27714,-13.841228 0.12093,-9.065551 -0.0715,-10.748327 -1.64892,-14.421167 -1.36462,-3.177355 -2.46103,-4.8514003 -4.76752,-7.2793228 -2.24013,-2.3580725 -4.01808,-3.7016532 -6.61459,-4.9986142 -13.31197,-6.6492967 -29.27828,0.9331854 -32.99498,15.669498 -0.55584,2.203847 -0.60058,2.952856 -0.60058,10.054167 0,8.506857 0.24188,10.236703 1.96173,14.02977 1.91912,4.232539 5.8087,8.55083 9.78066,10.858685 l 2.14171,1.244415 v 5.255974 5.255948 l -4.69635,0.0026 c -2.583,0 -5.14509,0.126074 -5.69354,0.278394 -1.2968,0.360125 -2.68363,1.766041 -3.16251,3.20601 l -0.38055,1.144323 -1.83092,0.04067 c -1.00701,0.02222 -2.06904,-0.01958 -2.36009,-0.09311 z m 17.9751,-23.164747 c -2.89909,-3.438155 -1.4649,-8.907966 2.72801,-10.404264 1.3319,-0.475324 12.09337,-0.519218 13.66203,-0.05575 1.5638,0.462041 3.66378,2.625566 4.11338,4.237831 0.51493,1.84658 0.26171,3.902736 -0.66389,5.390753 -1.00787,1.620308 -1.62077,2.011733 -2.02682,1.294448 -0.16476,-0.291042 -0.87606,-1.139455 -1.58068,-1.885368 -3.95409,-4.185868 -10.7686,-3.711205 -14.14254,0.98507 -0.51256,0.713449 -1.02924,1.297173 -1.14818,1.297173 -0.11893,0 -0.54252,-0.386954 -0.94131,-0.859896 z m -3.88754,-15.978797 c -0.47352,-0.971629 -0.73976,-1.807712 -0.59381,-1.864756 1.18129,-0.46154 5.55105,-2.92571 5.62578,-3.172434 0.052,-0.171794 -0.32452,-0.776261 -0.83678,-1.34329 l -0.93139,-1.030922 1.25529,-1.236424 c 0.6904,-0.680006 1.37229,-1.236398 1.51529,-1.236398 0.29687,0 5.93952,5.595699 5.93952,5.890101 0,0.106098 -2.50099,1.444493 -5.55775,2.974181 l -5.55776,2.7813 z m 20.334,-1.056296 -5.53052,-2.785454 3.01267,-3.021224 c 1.65696,-1.661689 3.13864,-3.02125 3.29262,-3.02125 0.35655,0 2.5068,2.178896 2.5068,2.540211 0,0.149146 -0.35719,0.61341 -0.79375,1.031664 -1.31277,1.257723 -1.1151,1.554215 2.11667,3.175 1.60073,0.802798 2.91041,1.521566 2.91041,1.597263 0,0.333745 -1.61474,3.2961 -1.78974,3.2834 -0.10705,-0.0077 -2.68337,-1.267619 -5.72516,-2.79961 z"
         style="display:inline;fill:#d83833;stroke-width:0.264583" />
      <path
         sodipodi:nodetypes="cssssssssscssscccssssssssssscccssscsccscsscsssscsscsssssscs"
         id="path255"
         d="m -208.54838,67.679396 c -3.41494,-2.722562 -7.50573,-7.265167 -10.02979,-11.137582 -9.43446,-14.474296 -9.9756,-33.213755 -1.39965,-48.468651 2.78072,-4.9463326 7.2824,-10.153121 11.82632,-13.6787204 9.21553,-7.1502856 20.91138,-10.7181916 32.07251,-9.7839746 17.01132,1.423909 31.34088,11.064849 38.65948,26.010209 2.89659,5.915105 4.36605,11.917072 4.59335,18.761234 0.28411,8.554641 -0.95189,14.566292 -4.53562,22.060668 -3.0479,6.373812 -7.37383,11.853571 -12.67129,16.051001 -1.26411,1.001606 -1.31022,1.014624 -3.59614,1.014624 h -2.31561 l -0.30635,-1.022509 c -0.38554,-1.286801 -1.17246,-2.296769 -2.24817,-2.885387 -0.68365,-0.374068 -1.77942,-0.481912 -5.99591,-0.590021 l -5.15937,-0.132292 -0.0718,-5.234596 -0.0718,-5.234596 0.83821,-0.453945 c 3.50626,-1.898862 6.91225,-4.882172 8.94204,-7.832382 1.12371,-1.633246 2.54059,-4.655132 3.24393,-6.918563 0.52116,-1.677167 0.58217,-2.562648 0.67955,-9.862979 0.12093,-9.065551 -0.0715,-10.748327 -1.64892,-14.421167 -1.36462,-3.177355 -2.46103,-4.8514003 -4.76752,-7.2793228 -2.24013,-2.3580725 -4.01808,-3.7016532 -6.61459,-4.9986142 -13.31197,-6.6492967 -29.27828,0.9331854 -32.99498,15.669498 -0.55584,2.203847 -0.60058,2.952856 -0.60058,10.054167 0,8.506857 0.24188,10.236703 1.96173,14.02977 1.92032,4.235159 5.80841,8.550645 9.78613,10.86186 l 2.14717,1.24759 -0.0716,5.186653 -0.0716,5.186627 -5.29167,0.132292 c -3.30845,0.08271 -5.48998,0.247703 -5.82083,0.44024 -0.94817,0.551815 -2.01871,1.859465 -2.37692,2.903379 l -0.3507,1.022006 -2.34035,0.07363 c -2.28206,0.07178 -2.36673,0.0526 -3.3987,-0.77015 z m 15.67506,-38.234885 c -0.47352,-0.971629 -0.73976,-1.807712 -0.59381,-1.864756 1.18129,-0.46154 5.55105,-2.92571 5.62578,-3.172434 0.052,-0.171794 -0.32452,-0.776261 -0.83678,-1.34329 l -0.93139,-1.030922 1.25529,-1.236424 c 0.6904,-0.680006 1.37229,-1.236398 1.51529,-1.236398 0.29687,0 5.93952,5.595699 5.93952,5.890101 0,0.106098 -2.50099,1.444493 -5.55775,2.974181 l -5.55776,2.7813 z m 20.334,-1.056296 -5.53052,-2.785454 3.01267,-3.021224 c 1.65696,-1.661689 3.13864,-3.02125 3.29262,-3.02125 0.35655,0 2.5068,2.178896 2.5068,2.540211 0,0.149146 -0.35719,0.61341 -0.79375,1.031664 -1.31277,1.257723 -1.1151,1.554215 2.11667,3.175 1.60073,0.802798 2.91041,1.521566 2.91041,1.597263 0,0.333745 -1.61474,3.2961 -1.78974,3.2834 -0.10705,-0.0077 -2.68337,-1.267619 -5.72516,-2.79961 z"
         style="display:inline;fill:#452278;stroke-width:0.264583" />
      <path
         sodipodi:nodetypes="cssssssssscssscccssssssssssscccssscscc"
         id="path253"
         d="m -208.54838,67.679396 c -3.41494,-2.722562 -7.50573,-7.265167 -10.02979,-11.137582 -9.43446,-14.474296 -9.9756,-33.213755 -1.39965,-48.468651 2.78072,-4.9463326 7.2824,-10.153121 11.82632,-13.6787204 9.21553,-7.1502856 20.91138,-10.7181916 32.07251,-9.7839746 17.01132,1.423909 31.34088,11.064849 38.65948,26.010209 2.89659,5.915105 4.36605,11.917072 4.59335,18.761234 0.28411,8.554641 -0.95189,14.566292 -4.53562,22.060668 -3.0479,6.373812 -7.37383,11.853571 -12.67129,16.051001 -1.26411,1.001606 -1.31022,1.014624 -3.59614,1.014624 h -2.31561 l -0.30635,-1.022509 c -0.38554,-1.286801 -1.17246,-2.296769 -2.24817,-2.885387 -0.68365,-0.374068 -1.77942,-0.481912 -5.99591,-0.590021 l -5.15937,-0.132292 -0.0718,-5.234596 -0.0718,-5.234596 0.83821,-0.453945 c 3.50626,-1.898862 6.91225,-4.882172 8.94204,-7.832382 1.12371,-1.633246 2.54059,-4.655132 3.24393,-6.918563 0.52116,-1.677167 0.58217,-2.562648 0.67955,-9.862979 0.12093,-9.065551 -0.0715,-10.748327 -1.64892,-14.421167 -1.36462,-3.177355 -2.46103,-4.8514003 -4.76752,-7.2793228 -2.24013,-2.3580725 -4.01808,-3.7016532 -6.61459,-4.9986142 -13.31197,-6.6492967 -29.27828,0.9331854 -32.99498,15.669498 -0.55584,2.203847 -0.60058,2.952856 -0.60058,10.054167 0,8.506857 0.24188,10.236703 1.96173,14.02977 1.92032,4.235159 5.80841,8.550645 9.78613,10.86186 l 2.14717,1.24759 -0.0716,5.186653 -0.0716,5.186627 -5.29167,0.132292 c -3.30845,0.08271 -5.48998,0.247703 -5.82083,0.44024 -0.94817,0.551815 -2.01871,1.859465 -2.37692,2.903379 l -0.3507,1.022006 -2.34035,0.07363 c -2.28206,0.07178 -2.36673,0.0526 -3.3987,-0.77015 z"
         style="display:inline;fill:#014187;stroke-width:0.264583" />
    </g>
  </g>
</svg>
